<?xml version="1.0" encoding="UTF-8" standalone="no" ?>
<!DOCTYPE svg PUBLIC "-//W3C//DTD SVG 1.1//EN" "http://www.w3.org/Graphics/SVG/1.1/DTD/svg11.dtd">
<svg xmlns="http://www.w3.org/2000/svg" xmlns:xlink="http://www.w3.org/1999/xlink" version="1.1" width="470" height="585" viewBox="192.04 155.83 470 585" xml:space="preserve">
<desc>Created with Fabric.js 5.2.4</desc>
<defs>
</defs>
<rect x="0" y="0" width="100%" height="100%" fill="transparent"></rect>
<g transform="matrix(1 0 0 1 235 292.5)" id="27ac5381-79ca-4279-a378-1ea08e612dc3"  >
<rect style="stroke: none; stroke-width: 1; stroke-dasharray: none; stroke-linecap: butt; stroke-dashoffset: 0; stroke-linejoin: miter; stroke-miterlimit: 4; fill: rgb(255,255,255); fill-rule: nonzero; opacity: 1; visibility: hidden;" vector-effect="non-scaling-stroke"  x="-235" y="-292.5" rx="0" ry="0" width="470" height="585" />
</g>
<g transform="matrix(Infinity NaN NaN Infinity 0 0)" id="4a235ea9-5223-4e2c-9bf0-9e7026522d82"  >
</g>
<g transform="matrix(0.44 0 0 0.44 426.68 447.91)"  >
<g style="opacity: 1;" vector-effect="non-scaling-stroke"   >
		<g transform="matrix(1 0 0 1 -9.46 -178.05)"  >
<path style="stroke: none; stroke-width: 1; stroke-dasharray: none; stroke-linecap: butt; stroke-dashoffset: 0; stroke-linejoin: miter; stroke-miterlimit: 4; fill: rgb(255,255,255); fill-rule: nonzero; opacity: 1;" vector-effect="non-scaling-stroke"  transform=" translate(-372.62, -54.82)" d="M 321.73 44.31 L 321.73 56.31 C 321.73 60.29197304628001 324.95802695372 63.519999999999996 328.94 63.52 L 380.67 63.52 C 382.14000000000004 69.72 388.09000000000003 72.77000000000001 395.52000000000004 72.52000000000001 C 390.08000000000004 70.13000000000001 389.02000000000004 66.83000000000001 389.19000000000005 63.52000000000001 L 416.3 63.52000000000001 C 418.21129260075566 63.52000184345441 420.04415787097855 62.760060034278325 421.39470762260584 61.40763451910709 C 422.7452573742332 60.055209003935865 423.5026545730575 58.22129075730216 423.5 56.31000000000001 L 423.5 44.31000000000001 C 423.5026545730575 42.39870924269786 422.7452573742332 40.56479099606416 421.39470762260584 39.21236548089293 C 420.04415787097855 37.8599399657217 418.21129260075566 37.09999815654561 416.3 37.10000000000001 L 328.94 37.10000000000001 C 324.95802695372 37.10000000000002 321.73 40.32802695371999 321.73 44.31 Z" stroke-linecap="round" />
</g>
		<g transform="matrix(1 0 0 1 -9.44 -178.03)"  >
<path style="stroke: none; stroke-width: 1; stroke-dasharray: none; stroke-linecap: butt; stroke-dashoffset: 0; stroke-linejoin: miter; stroke-miterlimit: 4; fill: rgb(69,90,100); fill-rule: nonzero; opacity: 1;" vector-effect="non-scaling-stroke"  transform=" translate(-372.64, -54.84)" d="M 394.63 73 C 387.13 73 381.84 69.68 380.32 64 L 328.94 64 C 324.7101550112184 63.99450671817773 321.2810116635647 60.5698342223463 321.27 56.34 L 321.27 44.34 C 321.27551775991935 40.10788173765097 324.7078781406758 36.679996403023296 328.94 36.68000000000001 L 416.3 36.68000000000001 C 420.53215034380196 36.66338909837766 423.97796123996545 40.07787444093965 424 44.31 L 424 56.31 C 424.00534261544277 58.35288269798176 423.19548951613507 60.313488465647005 421.75001004923297 61.75709068648816 C 420.3045305823309 63.200692907329326 418.34287402998723 64.00799742813152 416.3 64 L 389.63 64 C 389.58 66.61 390.37 69.78 395.7 72.12 C 395.89869878113814 72.20539190741098 396.01107952110533 72.4176666384601 395.96999999999997 72.63000000000001 C 395.928825483888 72.83755274759982 395.75137247066385 72.9902448752578 395.53999999999996 73.00000000000001 Z M 328.94 37.56 C 325.2104568499181 37.559995919320514 322.1855170756636 40.58046093059538 322.18 44.31000000000001 L 322.18 56.31 C 322.1855170756636 60.03953906940463 325.2104568499181 63.0600040806795 328.94 63.06 L 380.68 63.06 C 380.8891938052797 63.06303186493492 381.06999211023304 63.20684869842048 381.12 63.410000000000004 C 382.34000000000003 68.61 386.95 71.75 393.59000000000003 72.05000000000001 C 389.02000000000004 69.4 388.59000000000003 65.95000000000002 388.73 63.49000000000001 C 388.7504658356991 63.24995575042356 388.9491224641977 63.064254989000936 389.19 63.06000000000001 L 416.3 63.06000000000001 C 420.025638505469 63.05449276480703 423.04449276480705 60.03563850546897 423.05 56.31000000000001 L 423.05 44.31000000000001 C 423.04449276480705 40.58436149453105 420.025638505469 37.56550723519299 416.3 37.56000000000001 Z" stroke-linecap="round" />
</g>
		<g transform="matrix(1 0 0 1 27.61 -182.54)"  >
<path style="stroke: none; stroke-width: 1; stroke-dasharray: none; stroke-linecap: butt; stroke-dashoffset: 0; stroke-linejoin: miter; stroke-miterlimit: 4; fill: rgb(0,32,241); fill-rule: nonzero; opacity: 1;" vector-effect="non-scaling-stroke"  transform=" translate(-409.69, -50.33)" d="M 409 44.23 L 407.29 47.68 L 403.49 48.24 C 403.21222733648045 48.28116479276107 402.98168634746384 48.476004026310626 402.89479718928385 48.743029244132046 C 402.80790803110386 49.010054461953466 402.8796429731815 49.303253323874955 403.08 49.5 L 405.83 52.19 L 405.22 56 C 405.17065482829554 56.27942462545962 405.28543241266 56.56246023621689 405.51546122203814 56.728592154101094 C 405.74549003141624 56.894724071985294 406.0502591823511 56.914694436722016 406.3 56.78 L 409.7 55 L 413.11 56.79 C 413.35903339414773 56.91895436636171 413.65956503684674 56.89605396207931 413.8861840558769 56.7308550510106 C 414.11280307490705 56.56565613994189 414.22656602542105 56.286547401508244 414.18 56.01 L 413.53000000000003 52.22 L 416.29 49.53 C 416.4903570268185 49.333253323874956 416.56209196889614 49.04005446195347 416.47520281071615 48.77302924413205 C 416.38831365253617 48.50600402631063 416.15777266351955 48.31116479276107 415.88 48.27 L 412.07 47.71 L 410.37 44.26 C 410.2625141323531 43.97913225157697 409.9957405623625 43.79124737070158 409.6950803597669 43.784663570644746 C 409.3944201571713 43.77807977058791 409.1196777168101 43.95410663663807 409 44.23 Z" stroke-linecap="round" />
</g>
		<g transform="matrix(1 0 0 1 9.09 -182.53)"  >
<path style="stroke: none; stroke-width: 1; stroke-dasharray: none; stroke-linecap: butt; stroke-dashoffset: 0; stroke-linejoin: miter; stroke-miterlimit: 4; fill: rgb(0,32,241); fill-rule: nonzero; opacity: 1;" vector-effect="non-scaling-stroke"  transform=" translate(-391.16, -50.34)" d="M 390.5 44.23 L 388.79 47.68 L 384.99 48.24 C 384.7104960180408 48.278020240921265 384.4769170924907 48.47163601393455 384.387716187422 48.73923872914066 C 384.29851528235326 49.00684144434677 384.3692089589854 49.30188141808747 384.57 49.5 L 387.33 52.19 L 386.68 56 C 386.63343397457896 56.276547401508246 386.74719692509296 56.555656139941895 386.9738159441231 56.7208550510106 C 387.20043496315327 56.88605396207931 387.5009666058523 56.90895436636171 387.75 56.78 L 391.16 55 L 394.56 56.79 C 394.8097408176489 56.924694436722014 395.1145099685838 56.90472407198529 395.3445387779619 56.73859215410109 C 395.57456758734 56.57246023621689 395.6893451717045 56.28942462545962 395.64 56.01 L 395 52.19 L 397.75 49.5 C 397.9503570268185 49.303253323874955 398.0220919688961 49.010054461953466 397.93520281071613 48.743029244132046 C 397.84831365253615 48.476004026310626 397.61777266351953 48.28116479276107 397.34 48.24 L 393.53999999999996 47.68 L 391.83 44.23 C 391.7117602210549 43.968879197196145 391.4516438887922 43.801122898498285 391.16499999999996 43.801122898498285 C 390.8783561112078 43.801122898498285 390.6182397789451 43.968879197196145 390.5 44.23 Z" stroke-linecap="round" />
</g>
		<g transform="matrix(1 0 0 1 -9.47 -182.51)"  >
<path style="stroke: none; stroke-width: 1; stroke-dasharray: none; stroke-linecap: butt; stroke-dashoffset: 0; stroke-linejoin: miter; stroke-miterlimit: 4; fill: rgb(0,32,241); fill-rule: nonzero; opacity: 1;" vector-effect="non-scaling-stroke"  transform=" translate(-372.6, -50.36)" d="M 372 44.23 L 370.3 47.68 L 366.49 48.24 C 366.1981299566242 48.25407656997623 365.9418746575894 48.43859020751321 365.8359644911679 48.710930635454176 C 365.7300543247464 48.983271063395144 365.7943244871465 49.292433491490165 366 49.5 L 368.76 52.19 L 368.14 56 C 368.09343397457894 56.276547401508246 368.20719692509294 56.555656139941895 368.43381594412307 56.7208550510106 C 368.66043496315325 56.88605396207931 368.96096660585226 56.90895436636171 369.21 56.78 L 372.62 55 L 376.02 56.79 C 376.27147751181855 56.926655210375344 376.5792105742047 56.90604104668858 376.810214767046 56.73706575748061 C 377.04121895988726 56.568090468272636 377.15406992254975 56.28105520622938 377.1 56 L 376.45000000000005 52.21 L 379.20000000000005 49.52 C 379.40035702681854 49.32325332387496 379.47209196889617 49.03005446195347 379.3852028107162 48.76302924413205 C 379.2983136525362 48.49600402631063 379.0677726635196 48.30116479276107 378.79 48.260000000000005 L 375 47.68 L 373.3 44.23 C 373.1704394852343 43.991901112246154 372.92106642605825 43.84369478367653 372.65 43.84369478367653 C 372.37893357394177 43.84369478367653 372.1295605147657 43.991901112246154 372 44.23 Z" stroke-linecap="round" />
</g>
		<g transform="matrix(1 0 0 1 -28 -182.52)"  >
<path style="stroke: none; stroke-width: 1; stroke-dasharray: none; stroke-linecap: butt; stroke-dashoffset: 0; stroke-linejoin: miter; stroke-miterlimit: 4; fill: rgb(0,32,241); fill-rule: nonzero; opacity: 1;" vector-effect="non-scaling-stroke"  transform=" translate(-354.07, -50.35)" d="M 353.41 44.23 L 351.71000000000004 47.68 L 347.90000000000003 48.24 C 347.6222273364805 48.28116479276107 347.39168634746386 48.476004026310626 347.3047971892839 48.743029244132046 C 347.2179080311039 49.010054461953466 347.2896429731815 49.303253323874955 347.49 49.5 L 350.25 52.19 L 349.59 56 C 349.5486668103426 56.277274858862896 349.66542056336294 56.5544539108391 349.89268531454763 56.71858956447249 C 350.11995006573227 56.88272521810587 350.4197809542577 56.9064128516905 350.66999999999996 56.78 L 354.08 55 L 357.47999999999996 56.79 C 357.7302190457422 56.916412851690495 358.03004993426765 56.892725218105866 358.2573146854523 56.728589564472486 C 358.484579436637 56.5644539108391 358.60133318965734 56.287274858862894 358.55999999999995 56.01 L 357.8999999999999 52.22 L 360.6599999999999 49.53 C 360.8603570268184 49.333253323874956 360.93209196889603 49.04005446195347 360.84520281071605 48.77302924413205 C 360.75831365253606 48.50600402631063 360.52777266351944 48.31116479276107 360.2499999999999 48.27 L 356.4399999999999 47.71 L 354.7399999999999 44.26 C 354.6217686392007 44.00291063829244 354.36727584080904 43.835755348730146 354.0843750196872 43.82937412720108 C 353.8014741985653 43.82299290567202 353.5397032302844 43.97850314786575 353.41 44.23 Z" stroke-linecap="round" />
</g>
		<g transform="matrix(1 0 0 1 -46.52 -182.52)"  >
<path style="stroke: none; stroke-width: 1; stroke-dasharray: none; stroke-linecap: butt; stroke-dashoffset: 0; stroke-linejoin: miter; stroke-miterlimit: 4; fill: rgb(0,32,241); fill-rule: nonzero; opacity: 1;" vector-effect="non-scaling-stroke"  transform=" translate(-335.55, -50.35)" d="M 334.87 44.23 L 333.17 47.68 L 329.36 48.24 C 329.09073200552734 48.29601520067044 328.87474347891964 48.49674558322431 328.7991862006076 48.76119605731645 C 328.7236289222956 49.02564653140858 328.8009691673114 49.310185134426334 329 49.5 L 331.75 52.19 L 331.05 56 C 331.0006548282955 56.27942462545962 331.11543241265997 56.56246023621689 331.3454612220381 56.728592154101094 C 331.5754900314162 56.894724071985294 331.8802591823511 56.914694436722016 332.13 56.78 L 335.53 54.99 L 338.94 56.78 C 339.18825528599695 56.90339007351026 339.4846551976798 56.87767019634673 339.7079456931916 56.71336209587577 C 339.9312361887034 56.54905399540481 340.0439588349948 56.2737214242477 340 56 L 339.35 52.21 L 342.11 49.52 C 342.3103570268185 49.32325332387496 342.38209196889613 49.03005446195347 342.29520281071615 48.76302924413205 C 342.20831365253616 48.49600402631063 341.97777266351954 48.30116479276107 341.7 48.260000000000005 L 337.89 47.7 L 336.19 44.25 C 336.0677297159345 43.99938674830913 335.8149604767786 43.838785616003385 335.53614301350024 43.83456110898402 C 335.2573255502219 43.830336601964646 334.99980675610016 43.983206097402544 334.87 44.23 Z" stroke-linecap="round" />
</g>
		<g transform="matrix(1 0 0 1 -5.09 139.35)"  >
<path style="stroke: none; stroke-width: 1; stroke-dasharray: none; stroke-linecap: butt; stroke-dashoffset: 0; stroke-linejoin: miter; stroke-miterlimit: 4; fill: rgb(255,168,167); fill-rule: nonzero; opacity: 1;" vector-effect="non-scaling-stroke"  transform=" translate(-376.98, -372.22)" d="M 395.08 352.78 L 375.21999999999997 351.28 C 375.34999999999997 360.34 375.21999999999997 368.66999999999996 375.13 370.16999999999996 C 374.90999999999997 375.29999999999995 373.13 379.06999999999994 371.19 381.25999999999993 C 367.07 385.8399999999999 364.08 387.7199999999999 358.88 391.74999999999994 C 359.68 393.74999999999994 370.71999999999997 393.47999999999996 373.83 391.88999999999993 C 378.3530025600418 389.5163985985314 382.7126759114159 386.84380190803387 386.87999999999994 383.88999999999993 C 391.15 380.60999999999996 392.13 378.6599999999999 392.12 373.7799999999999 C 392.1248201279172 373.2491347028342 392.10145391311084 372.71838782366126 392.05 372.18999999999994 C 392.06 371 393.41 362.7 395.08 352.78 Z" stroke-linecap="round" />
</g>
		<g transform="matrix(1 0 0 1 60.43 159.68)"  >
<path style="stroke: none; stroke-width: 1; stroke-dasharray: none; stroke-linecap: butt; stroke-dashoffset: 0; stroke-linejoin: miter; stroke-miterlimit: 4; fill: rgb(255,168,167); fill-rule: nonzero; opacity: 1;" vector-effect="non-scaling-stroke"  transform=" translate(-442.5, -392.54)" d="M 449.47 363.06 L 429.86 362.42 C 431.6 370.5 432.18 373.72 433.79 382.88 C 434.88 389.12 437.32 410.06 438.65000000000003 414.4 C 442.92 428.4 454.16 421.98999999999995 455.09000000000003 414.4 C 455.72 409.33 449.99 383.4 449.93 380.96999999999997 C 449.74 374.33 449.6 369.76 449.47 363.06 Z" stroke-linecap="round" />
</g>
		<g transform="matrix(1 0 0 1 -11.71 163.04)"  >
<path style="stroke: none; stroke-width: 1; stroke-dasharray: none; stroke-linecap: butt; stroke-dashoffset: 0; stroke-linejoin: miter; stroke-miterlimit: 4; fill: rgb(38,50,56); fill-rule: nonzero; opacity: 1;" vector-effect="non-scaling-stroke"  transform=" translate(-370.36, -395.91)" d="M 346.19 398.27 C 345.89 398.27 345.46999999999997 401.51 347.07 402.87 C 348.92 404.44 354.32 407 361.44 406.03000000000003 C 368.56 405.06000000000006 372.39 402.84000000000003 375.21999999999997 400.43 C 378.04999999999995 398.02 382.03 394.64 385.21999999999997 393.91 C 388.21999999999997 393.23 393.05999999999995 391.51000000000005 394.02 390.58000000000004 C 394.98 389.65000000000003 394.81 385.58000000000004 394.81 385.58000000000004 Z" stroke-linecap="round" />
</g>
		<g transform="matrix(1 0 0 1 -11.79 154.56)"  >
<path style="stroke: none; stroke-width: 1; stroke-dasharray: none; stroke-linecap: butt; stroke-dashoffset: 0; stroke-linejoin: miter; stroke-miterlimit: 4; fill: rgb(55,71,79); fill-rule: nonzero; opacity: 1;" vector-effect="non-scaling-stroke"  transform=" translate(-370.28, -387.43)" d="M 392.05 371.14 C 392.6221022976368 371.4154613879974 393.04567311938905 371.9266675521812 393.21000000000004 372.53999999999996 C 393.3783167459248 374.0280537854287 393.6219627657681 375.5066179880394 393.94000000000005 376.96999999999997 C 394.69792542940615 380.2456667646981 394.95417817077737 383.61741336168785 394.70000000000005 386.96999999999997 C 394.32000000000005 389.07 387.84000000000003 390.90999999999997 384.70000000000005 392.11999999999995 C 381.0447337293032 393.7481805519088 377.65648448169884 395.91935718420444 374.65000000000003 398.55999999999995 C 371.32000000000005 401.3399999999999 364.3 404.15999999999997 359.65000000000003 404.25999999999993 C 352.57000000000005 404.4099999999999 347.97 402.5199999999999 346.54 399.97999999999996 C 344.76000000000005 396.84 345.61 393.56999999999994 353.73 389.73999999999995 C 355.26 389.0199999999999 360.66 385.73999999999995 362.49 384.60999999999996 C 364.43746154699284 383.3765246319794 366.28032327739953 381.9851807484056 368 380.44999999999993 C 368.8702493068407 379.6714249408691 369.6949474403749 378.8433879484947 370.47 377.9699999999999 C 371.282784391136 377.19862164483624 371.9739662527565 376.3085142718225 372.52000000000004 375.3299999999999 C 372.61 375.1099999999999 372.67 374.8599999999999 372.75000000000006 374.63999999999993 C 372.97342207237875 374.01462891648583 373.14729195806837 373.37264780009343 373.27000000000004 372.7199999999999 C 373.39000000000004 372.0499999999999 373.47 371.0599999999999 374.11 370.6499999999999 C 374.75 370.23999999999995 384.88 372.1599999999999 385.59000000000003 373.2799999999999 C 386.0818718510706 374.20115334601843 386.32000502515007 375.23651497245066 386.28000000000003 376.2799999999999 C 386.28000000000003 376.74999999999994 386.28000000000003 377.2299999999999 386.28000000000003 377.7099999999999 C 386.28000000000003 377.9099999999999 386.20000000000005 378.2799999999999 386.48 378.18999999999994 C 386.76 378.09999999999997 387.05 377.3999999999999 387.15000000000003 377.18999999999994 C 387.37000000000006 376.65999999999997 387.51000000000005 376.0899999999999 387.76000000000005 375.55999999999995 C 387.97043674550576 374.9205305052821 388.3109065938027 374.33151766772835 388.76000000000005 373.8299999999999 C 390.11000000000007 372.68999999999994 391.4200000000001 372.8999999999999 391.81000000000006 372.50999999999993 C 391.88 372.41 392 371.55 392.05 371.14 Z" stroke-linecap="round" />
</g>
		<g transform="matrix(1 0 0 1 -25.76 164.29)"  >
<path style="stroke: none; stroke-width: 1; stroke-dasharray: none; stroke-linecap: butt; stroke-dashoffset: 0; stroke-linejoin: miter; stroke-miterlimit: 4; fill: rgb(250,250,250); fill-rule: nonzero; opacity: 1;" vector-effect="non-scaling-stroke"  transform=" translate(-356.31, -397.15)" d="M 353.32 390 C 363.58 390.64 366.5 398.8 366.96 402.72 C 364.6324078842881 403.61762774140624 362.18019904504155 404.15056996506644 359.69 404.3 C 352.61 404.45 347.69 402.56 346.29 400.02000000000004 C 344.61 397 346.07 392.75 353.32 390 Z" stroke-linecap="round" />
</g>
		<g transform="matrix(1 0 0 1 -18.42 156)"  >
<path style="stroke: none; stroke-width: 1; stroke-dasharray: none; stroke-linecap: butt; stroke-dashoffset: 0; stroke-linejoin: miter; stroke-miterlimit: 4; fill: rgb(240,240,240); fill-rule: nonzero; opacity: 1;" vector-effect="non-scaling-stroke"  transform=" translate(-363.66, -388.87)" d="M 368.35 391.8 C 368.463512129704 391.8037672898897 368.57425055707347 391.76447300921023 368.66 391.69 C 368.8676073764709 391.509180528614 368.8982989133173 391.19788065488626 368.73 390.98 C 367.29 389.25 362.64000000000004 385.52000000000004 358.92 385.98 C 358.6438576250846 386.01037566124074 358.4446243387593 386.2588576250846 358.475 386.535 C 358.50537566124075 386.81114237491545 358.7538576250846 387.01037566124074 359.03000000000003 386.98 C 362.51000000000005 386.58000000000004 366.81 390.27000000000004 367.96000000000004 391.65000000000003 C 368.0594041909593 391.75821619131386 368.2036994413973 391.8137143645592 368.35 391.8 Z" stroke-linecap="round" />
</g>
		<g transform="matrix(1 0 0 1 -14.01 153.4)"  >
<path style="stroke: none; stroke-width: 1; stroke-dasharray: none; stroke-linecap: butt; stroke-dashoffset: 0; stroke-linejoin: miter; stroke-miterlimit: 4; fill: rgb(240,240,240); fill-rule: nonzero; opacity: 1;" vector-effect="non-scaling-stroke"  transform=" translate(-368.06, -386.27)" d="M 372.74 389.2 C 372.9350382647524 389.2022785792883 373.1135971289067 389.0909311906914 373.19737295847176 388.91478713878536 C 373.28114878803683 388.7386430868793 373.25484631711765 388.5298616486742 373.13 388.38 C 371.69 386.64 367.04 382.90999999999997 363.32 383.38 C 363.04717946111276 383.41139101247427 362.85073794265816 383.6569429105425 362.88 383.93 C 362.88965984836943 384.0633440566113 362.9544947157924 384.1866175937049 363.0588917945995 384.2701352567506 C 363.16328887340666 384.3536529197963 363.2977877829323 384.38984640426156 363.43 384.37 C 366.91 383.98 371.21 387.67 372.36 389.05 C 372.4580055022637 389.15409861031816 372.5973150850677 389.20908923510916 372.74 389.2 Z" stroke-linecap="round" />
</g>
		<g transform="matrix(1 0 0 1 -9.94 150.44)"  >
<path style="stroke: none; stroke-width: 1; stroke-dasharray: none; stroke-linecap: butt; stroke-dashoffset: 0; stroke-linejoin: miter; stroke-miterlimit: 4; fill: rgb(240,240,240); fill-rule: nonzero; opacity: 1;" vector-effect="non-scaling-stroke"  transform=" translate(-372.13, -383.31)" d="M 376.82 386.24 C 376.93367960046544 386.23499549657475 377.0425795618745 386.1928406728035 377.13 386.12 C 377.3425332844092 385.9417508718721 377.3736319297469 385.62632175487573 377.2 385.41 C 375.76 383.68 371.09999999999997 379.95000000000005 367.39 380.41 C 367.1157041796755 380.44639799778315 366.9204681286841 380.6948802444995 366.95 380.97 C 366.98139101247426 381.24282053888726 367.2269429105425 381.43926205734186 367.5 381.41 C 370.98 381.01000000000005 375.29 384.71000000000004 376.43 386.08000000000004 C 376.530844541235 386.1870780149612 376.67300973138225 386.2454021955344 376.82 386.24 Z" stroke-linecap="round" />
</g>
		<g transform="matrix(1 0 0 1 -6.38 147.44)"  >
<path style="stroke: none; stroke-width: 1; stroke-dasharray: none; stroke-linecap: butt; stroke-dashoffset: 0; stroke-linejoin: miter; stroke-miterlimit: 4; fill: rgb(240,240,240); fill-rule: nonzero; opacity: 1;" vector-effect="non-scaling-stroke"  transform=" translate(-375.7, -380.3)" d="M 380.81 383.27 C 380.9226463048222 383.26857807014864 381.0316518925977 383.2298986680347 381.12 383.15999999999997 C 381.2238666936103 383.07763998074114 381.2899334694305 382.95671187959516 381.3031234231584 382.8248123423158 C 381.31631337688634 382.6929128050365 381.2755010126955 382.56129678988935 381.19 382.46 C 379.19 379.98999999999995 374.25 376.95 370.53 377.38 C 370.25717946111274 377.41139101247427 370.06073794265814 377.6569429105425 370.09 377.93 C 370.1024750408657 378.06218262337217 370.168055712543 378.18364466008285 370.271731663391 378.26658542076126 C 370.375407614239 378.34952618143967 370.50830291944686 378.3868449262371 370.64 378.37 C 373.99 377.99 378.64 380.9 380.40999999999997 383.08 C 380.50648956381985 383.2021437486504 380.6543604959095 383.272382441393 380.81 383.27 Z" stroke-linecap="round" />
</g>
		<g transform="matrix(1 0 0 1 64.98 186.52)"  >
<path style="stroke: none; stroke-width: 1; stroke-dasharray: none; stroke-linecap: butt; stroke-dashoffset: 0; stroke-linejoin: miter; stroke-miterlimit: 4; fill: rgb(38,50,56); fill-rule: nonzero; opacity: 1;" vector-effect="non-scaling-stroke"  transform=" translate(-447.05, -419.39)" d="M 437.08 415.92 C 437.68 420.61 438.63 423.68 440.49 426.33000000000004 C 442.35 428.9800000000001 445.57 429.62000000000006 448.7 428.59000000000003 C 451.83 427.56 455.78 425.11 456.40999999999997 420.99 C 457.03999999999996 416.87 457.40999999999997 414.04 456.34999999999997 409.72 Z" stroke-linecap="round" />
</g>
		<g transform="matrix(1 0 0 1 62.92 171.2)"  >
<path style="stroke: none; stroke-width: 1; stroke-dasharray: none; stroke-linecap: butt; stroke-dashoffset: 0; stroke-linejoin: miter; stroke-miterlimit: 4; fill: rgb(55,71,79); fill-rule: nonzero; opacity: 1;" vector-effect="non-scaling-stroke"  transform=" translate(-444.99, -404.07)" d="M 449.93 381 C 451.25 381 451.33 387.28 452.53000000000003 393.55 C 453.82000000000005 400.28000000000003 454.98 402.91 456.1 408.42 C 457.37 414.72 456.51000000000005 417.63 454.55 421.63 C 452.59 425.63 444.97 429.95 440.7 424.71999999999997 C 437.21999999999997 420.45 436.7 415.47999999999996 436.59 409.10999999999996 C 436.38360441512697 403.7754135056645 435.71442489022996 398.46881987323104 434.59 393.2499999999999 C 433.67999999999995 388.1499999999999 432.65999999999997 383.5299999999999 433.77 382.91999999999996 C 434.052112276299 384.63298936608373 434.429362550625 386.32894635154923 434.9 387.99999999999994 C 435.06 388.3399999999999 435.63 389.18999999999994 435.73999999999995 387.84999999999997 C 435.73999999999995 387.45 435.59 386.54999999999995 435.59999999999997 386.15999999999997 C 435.5873462299905 385.44713772211054 436.0234294703905 384.80301477069395 436.68999999999994 384.54999999999995 C 438.3836538578636 383.5991272505286 440.27109557163607 383.045204138878 442.2099999999999 382.92999999999995 C 444.7799999999999 382.73999999999995 446.9899999999999 382.49999999999994 448.4799999999999 383.13999999999993 C 449.3699999999999 383.5199999999999 449.3999999999999 384.3399999999999 449.5499999999999 385.13999999999993 C 449.6999999999999 385.93999999999994 449.7899999999999 386.67999999999995 450.0099999999999 386.4699999999999 C 450.47 386 449.84 381.65 449.93 381 Z" stroke-linecap="round" />
</g>
		<g transform="matrix(1 0 0 1 64.91 186.09)"  >
<path style="stroke: none; stroke-width: 1; stroke-dasharray: none; stroke-linecap: butt; stroke-dashoffset: 0; stroke-linejoin: miter; stroke-miterlimit: 4; fill: rgb(250,250,250); fill-rule: nonzero; opacity: 1;" vector-effect="non-scaling-stroke"  transform=" translate(-446.98, -418.96)" d="M 456.72 412 C 457.19296308722494 415.38383987615407 456.56541659019626 418.8300868402837 454.93 421.83 C 452.93 425.83 444.71 430.21 440.44 424.96999999999997 C 438.32 422.36999999999995 437.58 419.15999999999997 437.08 415.88 C 439.11 411.51 452.79 408.68 456.72 412 Z" stroke-linecap="round" />
</g>
		<g transform="matrix(1 0 0 1 63.48 174.33)"  >
<path style="stroke: none; stroke-width: 1; stroke-dasharray: none; stroke-linecap: butt; stroke-dashoffset: 0; stroke-linejoin: miter; stroke-miterlimit: 4; fill: rgb(240,240,240); fill-rule: nonzero; opacity: 1;" vector-effect="non-scaling-stroke"  transform=" translate(-445.55, -407.2)" d="M 439.47 408.81 C 439.5262770692177 408.7989598758148 439.58034020865944 408.77868619852416 439.63000000000005 408.75 C 439.68000000000006 408.75 445.63000000000005 405.75 451.63000000000005 406.75 C 451.7586604284942 406.7701017462794 451.89003067534503 406.7381628346567 451.9951013978881 406.66123605565195 C 452.1001721204312 406.5843092766472 452.17030024817444 406.46872259258487 452.19000000000005 406.34 C 452.22623956170537 406.0734310920773 452.045063937609 405.8259717030675 451.78000000000003 405.78 C 445.42 404.78 439.39000000000004 407.78 439.16 407.90999999999997 C 438.94895863459607 408.02656211443764 438.85406563356554 408.27932374836087 438.9362570219027 408.50597272832096 C 439.0184484102399 408.7326217082811 439.25329972686256 408.8658057325059 439.49 408.82 Z" stroke-linecap="round" />
</g>
		<g transform="matrix(1 0 0 1 62.75 169.41)"  >
<path style="stroke: none; stroke-width: 1; stroke-dasharray: none; stroke-linecap: butt; stroke-dashoffset: 0; stroke-linejoin: miter; stroke-miterlimit: 4; fill: rgb(240,240,240); fill-rule: nonzero; opacity: 1;" vector-effect="non-scaling-stroke"  transform=" translate(-444.82, -402.28)" d="M 451 402 C 451.18783345458314 401.97084570081336 451.34076841247776 401.8335963796259 451.39 401.65 C 451.4539737077962 401.38837674990003 451.29922387698144 401.1230913256462 451.03999999999996 401.04999999999995 C 445.03999999999996 399.46 438.66999999999996 402.90999999999997 438.42999999999995 403.04999999999995 C 438.2325577911031 403.2032830018053 438.1821404729242 403.4806114410166 438.3129997353162 403.69357847589 C 438.4438589977083 403.9065455107633 438.7140436159078 403.9868775794288 438.93999999999994 403.87999999999994 C 438.98999999999995 403.87999999999994 445.16999999999996 400.49999999999994 450.78999999999996 401.97999999999996 C 450.85778108691414 402.0015253561953 450.9293742361755 402.0083437513631 451 402 Z" stroke-linecap="round" />
</g>
		<g transform="matrix(1 0 0 1 62.09 164.93)"  >
<path style="stroke: none; stroke-width: 1; stroke-dasharray: none; stroke-linecap: butt; stroke-dashoffset: 0; stroke-linejoin: miter; stroke-miterlimit: 4; fill: rgb(240,240,240); fill-rule: nonzero; opacity: 1;" vector-effect="non-scaling-stroke"  transform=" translate(-444.17, -397.8)" d="M 450.47 397.57 C 450.65562095399855 397.5362553982751 450.8064433484733 397.40090196733627 450.86 397.21999999999997 C 450.93041354264125 396.9605986688669 450.77871491363294 396.69289520591104 450.52000000000004 396.61999999999995 C 443.87000000000006 394.73999999999995 437.89000000000004 398.44999999999993 437.66 398.61999999999995 C 437.55363867659804 398.6943624892345 437.48192124885503 398.80862445470876 437.4611970383199 398.93673775619874 C 437.44047282778473 399.06485105768877 437.4725081653564 399.19589655872863 437.55 399.29999999999995 C 437.705193669454 399.5200429570274 438.0088637279735 399.5736317908837 438.23 399.41999999999996 C 438.23 399.41999999999996 444.06 395.83 450.23 397.56999999999994 C 450.3090245756337 397.58766736531624 450.39097542436633 397.58766736531624 450.47 397.57 Z" stroke-linecap="round" />
</g>
		<g transform="matrix(1 0 0 1 61.42 160.64)"  >
<path style="stroke: none; stroke-width: 1; stroke-dasharray: none; stroke-linecap: butt; stroke-dashoffset: 0; stroke-linejoin: miter; stroke-miterlimit: 4; fill: rgb(235,235,235); fill-rule: nonzero; opacity: 1;" vector-effect="non-scaling-stroke"  transform=" translate(-443.5, -393.51)" d="M 449.84 393.19 C 450.0622135396045 393.1502511695979 450.2285165605887 392.9638335518932 450.2427455119625 392.73854182180816 C 450.25697446333623 392.51325009172314 450.1154468426053 392.3073905387522 449.9 392.24 C 443.65999999999997 390.39 437.21 394.24 436.96999999999997 394.38 C 436.8610645663336 394.45144561744763 436.78506416169256 394.5633300433918 436.7587939595384 394.69092816814026 C 436.73252375738434 394.8185262928888 436.7581465467522 394.9513331411288 436.83 395.06 C 436.9820288634586 395.28344620574126 437.2862692513126 395.3416098093016 437.51 395.19 C 437.57 395.19 443.83 391.46 449.62 393.19 C 449.6919639369294 393.21004219578316 449.76803606307055 393.21004219578316 449.84 393.19 Z" stroke-linecap="round" />
</g>
		<g transform="matrix(1 0 0 1 30.04 56.27)"  >
<path style="stroke: none; stroke-width: 1; stroke-dasharray: none; stroke-linecap: butt; stroke-dashoffset: 0; stroke-linejoin: miter; stroke-miterlimit: 4; fill: rgb(69,90,100); fill-rule: nonzero; opacity: 1;" vector-effect="non-scaling-stroke"  transform=" translate(-412.11, -289.14)" d="M 444.47 209.76 C 444.88000000000005 224.26 445 227.76 445.8 258.84 C 446.59000000000003 288.98999999999995 446.63 293.09999999999997 446.8 296.73999999999995 C 447.14 305.06999999999994 449.52000000000004 307.73999999999995 449.8 327.40999999999997 C 450.05 345.40999999999997 449.73 367.59999999999997 449.73 367.59999999999997 C 449.73 367.59999999999997 447.17 370.82 440.31 371.15 C 433.97 371.46 430.91 368.96 430.91 368.96 C 430.91 368.96 420.86 328.56 418.09000000000003 315.96 C 414.87 301.32 409.09000000000003 276.09 409.09000000000003 276.09 L 403.78000000000003 304.66999999999996 C 404.00240191833706 313.641045534669 403.1835983130456 322.6076161631069 401.34000000000003 331.39 C 397.93 347.5 394.56000000000006 359.68 394.56000000000006 359.68 C 391.1986891822161 360.65563961946543 387.6753842216913 360.9447138681572 384.20000000000005 360.53000000000003 C 376.84000000000003 359.48 374.80000000000007 357.67 374.80000000000007 357.67 C 374.80000000000007 357.67 373.88000000000005 313.89 374.61000000000007 296.1 C 375.3400000000001 278.31000000000006 377.3500000000001 234.78000000000003 379.5200000000001 207.10000000000002 Z" stroke-linecap="round" />
</g>
		<g transform="matrix(1 0 0 1 16.74 36.66)"  >
<path style="stroke: none; stroke-width: 1; stroke-dasharray: none; stroke-linecap: butt; stroke-dashoffset: 0; stroke-linejoin: miter; stroke-miterlimit: 4; fill: rgb(55,71,79); fill-rule: nonzero; opacity: 1;" vector-effect="non-scaling-stroke"  transform=" translate(-398.81, -269.53)" d="M 409 276.06 L 405.15 244.73000000000002 C 405.15 244.73000000000002 394.96 241.59000000000003 388.63 234.41000000000003 C 388.90999999999997 239.58 397.8 246.57000000000002 402.05 247.77000000000004 L 406.64 275.58000000000004 L 403.64 304.64000000000004 Z" stroke-linecap="round" />
</g>
		<g transform="matrix(1 0 0 1 45.14 -1.61)"  >
<path style="stroke: none; stroke-width: 1; stroke-dasharray: none; stroke-linecap: butt; stroke-dashoffset: 0; stroke-linejoin: miter; stroke-miterlimit: 4; fill: rgb(55,71,79); fill-rule: nonzero; opacity: 1;" vector-effect="non-scaling-stroke"  transform=" translate(-427.21, -231.26)" d="M 423.55 213.75 C 425.01829281499914 216.39034848244518 426.20161414926343 219.17936647141937 427.08 222.07 C 427.97813232946856 224.9476311901307 428.7192249591244 227.87194264769155 429.3 230.82999999999993 C 429.85 233.82999999999998 430.3 236.76999999999998 430.56 239.76999999999998 C 430.8657771024414 242.75976352279494 430.9426675628468 245.76852066909206 430.79 248.76999999999995 C 430.19 245.76999999999998 429.64000000000004 242.88 429.09000000000003 239.95 C 428.54 237.01999999999998 428.02000000000004 234.08999999999997 427.43 231.17 C 426.84 228.25 426.28000000000003 225.33999999999997 425.65000000000003 222.44 C 425.02000000000004 219.54000000000002 424.33 216.66 423.55 213.75 Z" stroke-linecap="round" />
</g>
		<g transform="matrix(1 0 0 1 50.56 -7.02)"  >
<path style="stroke: none; stroke-width: 1; stroke-dasharray: none; stroke-linecap: butt; stroke-dashoffset: 0; stroke-linejoin: miter; stroke-miterlimit: 4; fill: rgb(55,71,79); fill-rule: nonzero; opacity: 1;" vector-effect="non-scaling-stroke"  transform=" translate(-432.63, -225.84)" d="M 427.44 215 C 428.8818365375242 216.4487628042432 430.18113964199085 218.03270705272965 431.32 219.73 C 432.47401033391776 221.4128327049558 433.50983247667216 223.17373034763835 434.42 225 C 435.324422595964 226.83555576065308 436.0866601551084 228.73780651132495 436.7 230.69 C 437.3272156534518 232.63459081419202 437.70687335631254 234.65047242230233 437.83 236.68999999999997 L 435.32 231.19 C 434.46 229.39 433.61 227.59 432.71999999999997 225.81 C 431.8299999999999 224.03 430.92999999999995 222.25 430.04999999999995 220.45 C 429.16999999999996 218.64999999999998 428.25 216.88 427.44 215 Z" stroke-linecap="round" />
</g>
		<g transform="matrix(1 0 0 1 46.5 74.04)"  >
<path style="stroke: none; stroke-width: 1; stroke-dasharray: none; stroke-linecap: butt; stroke-dashoffset: 0; stroke-linejoin: miter; stroke-miterlimit: 4; fill: rgb(55,71,79); fill-rule: nonzero; opacity: 1;" vector-effect="non-scaling-stroke"  transform=" translate(-428.57, -306.91)" d="M 419.43 250.72 C 420.34000000000003 260.1 421.12 269.49 421.92 278.86 C 422.72 288.23 424.56 298.62 425.92 307.91 C 427.28000000000003 317.20000000000005 436.66 353.73 437.71000000000004 363.09000000000003 C 435.93000000000006 353.84000000000003 425.47 317.52000000000004 424.04 308.17 C 422.61 298.82 421.04 288.38 420.46000000000004 278.97 C 419.88000000000005 269.56000000000006 419.61 260.14 419.43 250.72 Z" stroke-linecap="round" />
</g>
		<g transform="matrix(1 0 0 1 0.31 66.64)"  >
<path style="stroke: none; stroke-width: 1; stroke-dasharray: none; stroke-linecap: butt; stroke-dashoffset: 0; stroke-linejoin: miter; stroke-miterlimit: 4; fill: rgb(55,71,79); fill-rule: nonzero; opacity: 1;" vector-effect="non-scaling-stroke"  transform=" translate(-382.38, -299.51)" d="M 385.93 249.35 L 383.39 273.82 C 383 277.9 382.57 281.96999999999997 382.21999999999997 286.05 C 381.86999999999995 290.13000000000005 381.45 294.21000000000004 381.34999999999997 298.25 C 381.24999999999994 302.28999999999996 379.91999999999996 341.5 379.03 349.67 C 378.44 340.5 379.4 306.47 379.46 298.20000000000005 C 379.82 289.91 380.85999999999996 281.80000000000007 381.93 273.65000000000003 C 383.00000000000006 265.5 384.34 257.4 385.93 249.35 Z" stroke-linecap="round" />
</g>
		<g transform="matrix(1 0 0 1 2.84 126.75)"  >
<path style="stroke: none; stroke-width: 1; stroke-dasharray: none; stroke-linecap: butt; stroke-dashoffset: 0; stroke-linejoin: miter; stroke-miterlimit: 4; fill: rgb(55,71,79); fill-rule: nonzero; opacity: 1;" vector-effect="non-scaling-stroke"  transform=" translate(-384.91, -359.61)" d="M 395.34 355.82 L 393.84999999999997 363.74 C 393.84999999999997 363.74 390.09 366.11 382.95 365.08 C 375.81 364.04999999999995 374.63 361.89 374.63 361.89 L 374.48 353.89 C 374.48 353.89 376.13 355.63 382.65000000000003 356.64 C 386.8932569816537 357.18891263544583 391.20267487840795 356.91044749160517 395.34 355.82 Z" stroke-linecap="round" />
</g>
		<g transform="matrix(1 0 0 1 57.69 134.9)"  >
<path style="stroke: none; stroke-width: 1; stroke-dasharray: none; stroke-linecap: butt; stroke-dashoffset: 0; stroke-linejoin: miter; stroke-miterlimit: 4; fill: rgb(55,71,79); fill-rule: nonzero; opacity: 1;" vector-effect="non-scaling-stroke"  transform=" translate(-439.76, -367.76)" d="M 449.79 361.65 L 450.08000000000004 370.28999999999996 C 450.08000000000004 370.28999999999996 447.14000000000004 373.09 439.96000000000004 373.74999999999994 C 432.78000000000003 374.4099999999999 431.32000000000005 372.3299999999999 431.32000000000005 372.3299999999999 L 429.44000000000005 364.24999999999994 C 429.44000000000005 364.24999999999994 431.77000000000004 365.75999999999993 438.3500000000001 365.24999999999994 C 442.37734662512077 364.8841390241509 446.278899840687 363.6563775227489 449.79 361.65 Z" stroke-linecap="round" />
</g>
		<g transform="matrix(1 0 0 1 -32.54 -73.48)"  >
<path style="stroke: none; stroke-width: 1; stroke-dasharray: none; stroke-linecap: butt; stroke-dashoffset: 0; stroke-linejoin: miter; stroke-miterlimit: 4; fill: rgb(255,168,167); fill-rule: nonzero; opacity: 1;" vector-effect="non-scaling-stroke"  transform=" translate(-349.54, -159.39)" d="M 308.61 143.39 C 308.56 143.23999999999998 308.52000000000004 143.08999999999997 308.47 142.94 C 308.2018162181543 142.05747459911547 308.02751762718646 141.14911078849443 307.95000000000005 140.23 C 307.90670718039587 139.28525286660152 307.94350535032237 138.33853631303768 308.06000000000006 137.39999999999998 C 308.20000000000005 135.98 308.3500000000001 134.55999999999997 308.52000000000004 133.14 C 308.63000000000005 132.29 308.52000000000004 130.14 309.40000000000003 129.72 C 309.84000000000003 129.5 310.40000000000003 129.8 310.84000000000003 129.89 C 310.91936363583756 129.92637626284545 311.0106363641625 129.92637626284545 311.09000000000003 129.89 C 311.13528833061207 129.84285098768484 311.16646587837533 129.78396006413197 311.18 129.72 C 311.43 128.85999999999999 311.37 127.97 311.63 127.12 C 311.80394332079527 126.37251721288455 312.26805717988566 125.7249164792701 312.92 125.32000000000001 C 313.44587246073894 125.09253503712713 314.0182274991837 124.99314404242715 314.59000000000003 125.03 C 314.6038520807808 124.31511004995667 314.67744165123423 123.60262920874911 314.81000000000006 122.9 C 314.84469732606874 122.57604657210999 314.9812432856328 122.2714440469286 315.20000000000005 122.03 C 315.4293241550308 121.85678422120453 315.71319775380255 121.77162214157302 316.00000000000006 121.79 C 316.6559395228546 121.83492360239866 317.26890502096506 122.1324448675634 317.71000000000004 122.62 C 318.32761334928205 123.21140301979413 318.7080943938466 124.00792408505072 318.78000000000003 124.86 C 319.7157588967413 124.31430168939896 320.91135166242617 124.54999201955188 321.57000000000005 125.41 C 321.8901545966229 125.91923598171367 322.07912020766497 126.4998757683702 322.12000000000006 127.1 C 322.2765122184155 128.17955554484678 322.35338638275607 129.2691632655 322.3500000000001 130.35999999999999 C 322.29473002011304 132.34147089461914 322.39503792492417 134.32422381305184 322.6500000000001 136.29 C 322.89092372176344 138.00422311355126 323.4869644952584 139.6492956483974 324.4000000000001 141.12 C 324.5400000000001 141.34 324.7300000000001 141.6 325.0000000000001 141.58 C 325.27000000000015 141.56000000000003 325.42000000000013 141.22 325.4900000000001 140.94000000000003 C 326.09000000000015 138.29000000000002 324.98000000000013 135.35000000000002 326.1200000000001 132.94000000000003 C 326.5518749491677 132.0973436973985 327.13099459852594 131.33873082338536 327.8300000000001 130.70000000000002 C 327.9661651526758 130.551807919606 328.1335221740361 130.43568263947847 328.3200000000001 130.36 C 328.78952350265337 130.27964003518363 329.2449355393444 130.56319847312335 329.3800000000001 131.02 C 329.53671286618265 131.83702358452447 329.60709968667857 132.6682584170478 329.5900000000001 133.5 C 329.81753145718125 135.5675725900793 330.222354675838 137.61176256197422 330.80000000000007 139.61 C 331.3123739812211 141.35939976834925 331.6276635086194 143.16057504720945 331.74000000000007 144.98000000000002 C 331.8400000000001 146.48000000000002 331.30000000000007 148.49 331.74000000000007 149.91000000000003 C 331.86858658216244 150.24103610955135 332.0510497569556 150.54852034855458 332.2800000000001 150.82000000000002 C 334.1500000000001 153.28000000000003 344.43000000000006 163.53000000000003 347.56000000000006 166.34000000000003 Q 350.94000000000005 169.34000000000003 354.36000000000007 172.34000000000003 C 354.36000000000007 172.34000000000003 363.8400000000001 161.05000000000004 368.76000000000005 155.15000000000003 C 378.59000000000003 143.38000000000002 381.76000000000005 142.30000000000004 391.14000000000004 140.15000000000003 L 382.35 174.87000000000003 C 382.35 174.87000000000003 372.35 184.50000000000003 362.02000000000004 193.69000000000003 C 357.83000000000004 197.42000000000002 352.86 199.77000000000004 344.75000000000006 190.69000000000003 C 339.83000000000004 185.16000000000003 327.84000000000003 168.43000000000004 325.58000000000004 165.53000000000003 C 323.80492893586603 163.35304816997618 321.7697595163994 161.40183788497598 319.52000000000004 159.72000000000003 C 318.1238115913565 158.78852550801832 316.8030700597485 157.74865052996745 315.57000000000005 156.61 C 313.05000000000007 154.25 311.57000000000005 151.01000000000002 310.22 147.83 C 309.6037640629531 146.3800748557988 309.06631413519716 144.89791480658369 308.61 143.39 Z" stroke-linecap="round" />
</g>
		<g transform="matrix(1 0 0 1 -6.76 -71.09)"  >
<path style="stroke: none; stroke-width: 1; stroke-dasharray: none; stroke-linecap: butt; stroke-dashoffset: 0; stroke-linejoin: miter; stroke-miterlimit: 4; fill: rgb(38,50,56); fill-rule: nonzero; opacity: 1;" vector-effect="non-scaling-stroke"  transform=" translate(-375.32, -161.78)" d="M 391.47 139.55 C 385.42 140.42000000000002 380.85 141.65 375.86 146.55 C 370.87 151.45000000000002 359.16 165.79000000000002 359.16 165.79000000000002 C 359.8284583108094 169.3351156887007 361.3989234033465 172.6482459935706 363.72 175.41000000000003 C 366.4754466739389 178.66418205527626 369.6342028905755 181.55410795560343 373.12 184.01000000000002 L 384.62 173.31000000000003 Z" stroke-linecap="round" />
</g>
		<g transform="matrix(1 0 0 1 29.08 -45.46)"  >
<path style="stroke: none; stroke-width: 1; stroke-dasharray: none; stroke-linecap: butt; stroke-dashoffset: 0; stroke-linejoin: miter; stroke-miterlimit: 4; fill: rgb(55,71,79); fill-rule: nonzero; opacity: 1;" vector-effect="non-scaling-stroke"  transform=" translate(-411.15, -187.41)" d="M 440.41 150 C 440.41 150 446.66 161.07 445.07000000000005 177.63 C 444.22 186.63 445.32000000000005 186.63 444.69000000000005 200.63 C 444.24000000000007 210.68 445.05000000000007 231.2 445.05000000000007 231.2 C 434.7300000000001 239.97 387.5400000000001 240.48 376.9700000000001 227.29999999999998 C 376.9700000000001 227.29999999999998 377.55000000000007 205.67999999999998 377.55000000000007 188.61999999999998 C 377.55000000000007 175.89 377.9000000000001 165.95999999999998 379.3400000000001 159.93999999999997 C 382.61000000000007 146.35999999999996 388.7200000000001 141.53999999999996 391.4700000000001 139.47999999999996 C 402.05000000000007 138.14999999999995 408.6000000000001 136.02999999999997 414.6500000000001 138.24999999999997 C 431.84 144.64 440.41 150 440.41 150 Z" stroke-linecap="round" />
</g>
		<g transform="matrix(1 0 0 1 25.83 -127.11)"  >
<path style="stroke: none; stroke-width: 1; stroke-dasharray: none; stroke-linecap: butt; stroke-dashoffset: 0; stroke-linejoin: miter; stroke-miterlimit: 4; fill: rgb(38,50,56); fill-rule: nonzero; opacity: 1;" vector-effect="non-scaling-stroke"  transform=" translate(-407.9, -105.76)" d="M 422.57 131.54 C 426.4 124.94999999999999 430.03 120.71 432.65999999999997 113.47 C 433.71999999999997 110.53999999999999 435.29999999999995 103.81 433.65999999999997 99.93 C 432.55999999999995 97.22000000000001 430.88 95.09 427.96 95.04 C 428.71 91.25 426.96 88.98 425.37 87.36000000000001 C 423.73904069076553 85.72828183875836 421.3169638468631 85.17621937995557 419.14 85.94000000000001 C 418.90196787292683 83.97253878996425 417.55815338726006 82.31524542724672 415.68235193435936 81.67576765921241 C 413.8065504814587 81.0362898911781 411.7302460743495 81.52763363135834 410.34 82.94000000000001 C 409.3277965685381 80.96107921166448 407.2134770449072 79.79701565371039 405 80 C 402.6777423564257 80.19349142202061 400.67755965849 81.71409815144546 399.87 83.9 C 395.55 80.60000000000001 388.98 83.49000000000001 389.33 90.57000000000001 C 388.31484146734346 89.82726189022928 386.9608330713011 89.7414169775119 385.85999999999996 90.35000000000001 C 384.7843912429842 91.00107684224422 384.18972886401036 92.22169962013783 384.34 93.47000000000001 C 384.5843753975473 94.23829097257227 384.72889491178256 95.03482876033414 384.77 95.84000000000002 C 384.65999289037546 96.5522046842767 384.1565274726153 97.1408719419655 383.46999999999997 97.36000000000001 C 382.7736386358347 97.55509466745387 382.0271010688601 97.33346632725828 381.54999999999995 96.79000000000002 C 381.227078008658 98.07321499168604 381.5803805440738 99.43252690503468 382.48727093406956 100.39609794440513 C 383.39416132406524 101.35966898377558 384.7295864565294 101.79463021754938 386.03 101.55000000000003 C 385.7937800485477 102.68229396295347 386.2295482244679 103.84953014845408 387.15 104.55000000000003 C 387.8898395314324 105.01816602795157 388.77793634533947 105.19293206763608 389.64 105.04000000000002 Z" stroke-linecap="round" />
</g>
		<g transform="matrix(1 0 0 1 28.89 -110.75)"  >
<path style="stroke: none; stroke-width: 1; stroke-dasharray: none; stroke-linecap: butt; stroke-dashoffset: 0; stroke-linejoin: miter; stroke-miterlimit: 4; fill: rgb(255,168,167); fill-rule: nonzero; opacity: 1;" vector-effect="non-scaling-stroke"  transform=" translate(-410.96, -122.12)" d="M 390 124.33 C 390.74 129.68 393 132.43 396.55 133.75 C 398.47162370650403 134.32353969897775 400.47729279330497 134.56367883078698 402.48 134.46 L 402.12 139.64000000000001 C 391.43 151.97000000000003 417.12 152.32000000000002 422.2 141.48000000000002 L 422.8 124.01000000000002 C 422.8 124.01000000000002 425 126.71000000000002 428.90000000000003 124.39000000000001 C 432.1402816256353 122.18648607878924 433.3922458042217 118.01327215016786 431.90000000000003 114.39000000000001 C 430.18 110.39000000000001 426.44000000000005 110.39000000000001 424.54 112.19000000000001 C 422.43 114.19000000000001 422.54 116.12000000000002 421.54 116.01 C 420.33969942733825 115.97884138017577 419.3006632627113 115.16709437656091 418.98 114.01 C 418.37 112.28 418.3 110.52000000000001 418.38 106.72 C 416.90505658787765 105.9246380870278 415.65869875496844 104.76435469009301 414.76 103.35 C 413.28 100.35 414.26 97.35 415.2 95.42999999999999 C 410.96999999999997 93.72999999999999 406.42 98.1 401.84999999999997 98.57 C 396.62999999999994 99.1 396.26 94.69999999999999 393.40999999999997 94.97999999999999 C 391.07 96.97999999999999 389.89 101.74 389.92999999999995 104.83999999999999 C 390 110.89 388.65 114.32 390 124.33 Z" stroke-linecap="round" />
</g>
		<g transform="matrix(1 0 0 1 29.55 -102.52)"  >
<path style="stroke: none; stroke-width: 1; stroke-dasharray: none; stroke-linecap: butt; stroke-dashoffset: 0; stroke-linejoin: miter; stroke-miterlimit: 4; fill: rgb(242,143,143); fill-rule: nonzero; opacity: 1;" vector-effect="non-scaling-stroke"  transform=" translate(-411.62, -130.35)" d="M 402.51 134.46 C 406.68 134.39000000000001 415.13 132.79000000000002 417.45 130.55 C 419.77 128.31 420.92 123.61000000000001 420.92 123.61000000000001 C 420.92 123.61000000000001 420.34000000000003 129.61 418.51 132.18 C 416.67999999999995 134.75 412.28 135.73000000000002 409.61 136.28 C 407.1969534416761 136.6853544645903 404.7631720125431 136.95577462338284 402.32 137.09 Z" stroke-linecap="round" />
</g>
		<g transform="matrix(1 0 0 1 21.55 -109.15)"  >
<path style="stroke: none; stroke-width: 1; stroke-dasharray: none; stroke-linecap: butt; stroke-dashoffset: 0; stroke-linejoin: miter; stroke-miterlimit: 4; fill: rgb(177,102,104); fill-rule: nonzero; opacity: 1;" vector-effect="non-scaling-stroke"  transform=" translate(-403.62, -123.72)" d="M 406.67 121.73 L 400.5 123.13000000000001 C 400.6467576227775 123.96274553810888 401.12627024856215 124.69983394039605 401.82808772265736 125.17148546868586 C 402.5299051967526 125.64313699697566 403.393516927505 125.80868593107087 404.22 125.63000000000001 C 405.95549957118004 125.20443687967482 407.0399281589735 123.47820361747293 406.67 121.73 Z" stroke-linecap="round" />
</g>
		<g transform="matrix(1 0 0 1 22.7 -108.83)"  >
<path style="stroke: none; stroke-width: 1; stroke-dasharray: none; stroke-linecap: butt; stroke-dashoffset: 0; stroke-linejoin: miter; stroke-miterlimit: 4; fill: rgb(242,143,143); fill-rule: nonzero; opacity: 1;" vector-effect="non-scaling-stroke"  transform=" translate(-404.77, -124.04)" d="M 402.8 125.6 C 403.26691525246673 125.71023414371584 403.7530847475333 125.71023414371584 404.22 125.6 C 405.69250593200354 125.23444273890318 406.7298586873223 123.91716939881589 406.74 122.39999999999999 C 404.80991244785764 122.32735664616153 403.1247230891688 123.69603835880224 402.8 125.6 Z" stroke-linecap="round" />
</g>
		<g transform="matrix(1 0 0 1 12.39 -127.95)"  >
<path style="stroke: none; stroke-width: 1; stroke-dasharray: none; stroke-linecap: butt; stroke-dashoffset: 0; stroke-linejoin: miter; stroke-miterlimit: 4; fill: rgb(38,50,56); fill-rule: nonzero; opacity: 1;" vector-effect="non-scaling-stroke"  transform=" translate(-394.46, -104.91)" d="M 392.48 106.46 L 396.58000000000004 104.78999999999999 C 396.38555001278434 104.23942359031004 395.97360099406694 103.7928146980432 395.4404905401566 103.55461641012582 C 394.90738008624623 103.31641812220843 394.29985864533035 103.30751893676675 393.76000000000005 103.52999999999999 C 392.6209927579546 104.0098026818089 392.0581000409695 105.29829929178243 392.48 106.46 Z" stroke-linecap="round" />
</g>
		<g transform="matrix(1 0 0 1 28.21 -127.23)"  >
<path style="stroke: none; stroke-width: 1; stroke-dasharray: none; stroke-linecap: butt; stroke-dashoffset: 0; stroke-linejoin: miter; stroke-miterlimit: 4; fill: rgb(38,50,56); fill-rule: nonzero; opacity: 1;" vector-effect="non-scaling-stroke"  transform=" translate(-410.28, -105.64)" d="M 412 107.39 L 408.25 104.93 C 408.54803841694604 104.4316588189902 409.0349761725309 104.07505876618862 409.6000312139555 103.94132907305146 C 410.1650862553801 103.80759937991431 410.7602073823262 103.90811216385023 411.25 104.22000000000001 C 412.30163845232755 104.91019340966002 412.6308680618228 106.30173722579337 412 107.39 Z" stroke-linecap="round" />
</g>
		<g transform="matrix(1 0 0 1 12.69 -122.72)"  >
<path style="stroke: none; stroke-width: 1; stroke-dasharray: none; stroke-linecap: butt; stroke-dashoffset: 0; stroke-linejoin: miter; stroke-miterlimit: 4; fill: rgb(38,50,56); fill-rule: nonzero; opacity: 1;" vector-effect="non-scaling-stroke"  transform=" translate(-394.76, -110.15)" d="M 396.61 110.11 C 396.5887779368605 111.12832964468714 395.7683296446871 111.94877793686048 394.75 111.97 C 394.2667680632805 111.98642430388425 393.7978519404807 111.80444825743012 393.4522013193393 111.46635284112239 C 393.10655069819785 111.12825742481466 392.9142575614176 110.66347687310034 392.92 110.17999999999999 C 392.94122206313955 109.16167035531285 393.7616703553129 108.34122206313951 394.78000000000003 108.32 C 395.26323193671954 108.30357569611574 395.7321480595193 108.48555174256987 396.07779868066075 108.8236471588776 C 396.4234493018022 109.16174257518533 396.6157424385824 109.62652312689966 396.61 110.11 Z" stroke-linecap="round" />
</g>
		<g transform="matrix(1 0 0 1 26.58 -122.16)"  >
<path style="stroke: none; stroke-width: 1; stroke-dasharray: none; stroke-linecap: butt; stroke-dashoffset: 0; stroke-linejoin: miter; stroke-miterlimit: 4; fill: rgb(38,50,56); fill-rule: nonzero; opacity: 1;" vector-effect="non-scaling-stroke"  transform=" translate(-408.65, -110.71)" d="M 410.5 110.67 C 410.47877793686047 111.68832964468714 409.6583296446871 112.50877793686048 408.64 112.53 C 408.1567680632805 112.54642430388425 407.6878519404807 112.36444825743013 407.34220131933927 112.02635284112239 C 406.99655069819784 111.68825742481467 406.8042575614176 111.22347687310034 406.81 110.74 C 406.8260741142327 109.71948263227448 407.6494826322745 108.89607411423272 408.67 108.88 C 409.1524279098032 108.86643457272812 409.61968585219154 109.04934516396825 409.96469853279353 109.3868165837921 C 410.30971121339553 109.72428800361592 410.50290202638325 110.18739012938298 410.5 110.67 Z" stroke-linecap="round" />
</g>
		<g transform="matrix(1 0 0 1 17.21 -119.03)"  >
<path style="stroke: none; stroke-width: 1; stroke-dasharray: none; stroke-linecap: butt; stroke-dashoffset: 0; stroke-linejoin: miter; stroke-miterlimit: 4; fill: rgb(242,143,143); fill-rule: nonzero; opacity: 1;" vector-effect="non-scaling-stroke"  transform=" translate(-399.28, -113.84)" d="M 395.57 117.6 L 401.62 119.69999999999999 L 403 108 C 400.82 107.62 397.56 113.5 395.57 117.6 Z" stroke-linecap="round" />
</g>
		<g transform="matrix(1 0 0 1 -47.52 -107.66)"  >
<path style="stroke: none; stroke-width: 1; stroke-dasharray: none; stroke-linecap: butt; stroke-dashoffset: 0; stroke-linejoin: miter; stroke-miterlimit: 4; fill: rgb(250,250,250); fill-rule: nonzero; opacity: 1;" vector-effect="non-scaling-stroke"  transform=" translate(-334.56, -125.2)" d="M 308 130.3 C 307.4 132.37 309.06 136.68 311.76 137.47 C 310.8097583493653 138.69701442002878 310.0975020120622 140.0910018230364 309.65999999999997 141.58 C 308.78 144.58 310.80999999999995 148.45000000000002 314.96 149.66000000000003 L 346.7 158.91000000000003 L 351.24 160.3 L 361.74 124.30000000000001 L 357.16 123 C 357.16 123 352.16 107.6 351.98 105.28 C 351.8 102.96000000000001 355.24 94.08 355.73 92.42 C 356.22 90.76 348.51 87.84 344.27000000000004 93.13 C 340.3958538159272 97.65626139638084 338.2397080519582 103.40244296439681 338.18000000000006 109.36 L 319 103.79 C 314.95 102.61 312.2 105.86 311.54 108.14 C 310.84999336269016 110.41747623328281 311.4083061995334 112.89000451073126 313.01000000000005 114.65 C 310.4351718733941 114.65759510133793 308.19986176001214 116.42601049602827 307.6 118.93 C 306.82328000096703 121.72607556264173 308.063502704538 124.6902078241763 310.6 126.10000000000001 C 309.2898516589538 127.17144302141068 308.37483203430435 128.64955164584438 308 130.3 Z" stroke-linecap="round" />
</g>
		<g transform="matrix(1 0 0 1 -35.11 -132.44)"  >
<path style="stroke: none; stroke-width: 1; stroke-dasharray: none; stroke-linecap: butt; stroke-dashoffset: 0; stroke-linejoin: miter; stroke-miterlimit: 4; fill: rgb(224,224,224); fill-rule: nonzero; opacity: 1;" vector-effect="non-scaling-stroke"  transform=" translate(-346.97, -100.43)" d="M 355.73 92.45 C 356.21000000000004 90.79 348.51 87.87 344.27000000000004 93.16 C 340.3958538159272 97.68626139638084 338.2397080519582 103.43244296439681 338.18000000000006 109.39 L 338.4200000000001 109.72 L 341.8400000000001 110.72 C 344.68 92.11 352.07 91.48 355.73 92.45 Z" stroke-linecap="round" />
</g>
		<g transform="matrix(-0.96 -0.28 0.28 -0.96 -19.21 -86.66)"  >
<rect style="stroke: none; stroke-width: 1; stroke-dasharray: none; stroke-linecap: butt; stroke-dashoffset: 0; stroke-linejoin: miter; stroke-miterlimit: 4; fill: rgb(0,32,241); fill-rule: nonzero; opacity: 1;" vector-effect="non-scaling-stroke"  x="-7.205" y="-21.75" rx="0" ry="0" width="14.41" height="43.5" />
</g>
		<g transform="matrix(-0.96 -0.28 0.28 -0.96 -19.21 -86.66)"  >
<rect style="stroke: none; stroke-width: 1; stroke-dasharray: none; stroke-linecap: butt; stroke-dashoffset: 0; stroke-linejoin: miter; stroke-miterlimit: 4; fill: rgb(0,0,0); fill-rule: nonzero; opacity: 0.2;" vector-effect="non-scaling-stroke"  x="-7.205" y="-21.75" rx="0" ry="0" width="14.41" height="43.5" />
</g>
		<g transform="matrix(1 0 0 1 -65.69 -105.34)"  >
<path style="stroke: none; stroke-width: 1; stroke-dasharray: none; stroke-linecap: butt; stroke-dashoffset: 0; stroke-linejoin: miter; stroke-miterlimit: 4; fill: rgb(224,224,224); fill-rule: nonzero; opacity: 1;" vector-effect="non-scaling-stroke"  transform=" translate(-316.38, -127.53)" d="M 310.58 126.1 C 309.27727538863036 127.17449069966851 308.36950973814135 128.65224873534837 308 130.29999999999998 C 307.95771712464796 130.46422055071133 307.9276351104857 130.6313428516127 307.91 130.79999999999998 C 307.65000000000003 132.98999999999998 309.26000000000005 136.73999999999998 311.76000000000005 137.46999999999997 C 310.8097583493654 138.69701442002875 310.09750201206225 140.09100182303638 309.66 141.57999999999998 C 309.568759844109 141.88267364600688 309.51173711853045 142.19462149770138 309.49 142.51 C 309.21000000000004 145.34 311.23 148.57 314.96000000000004 149.66 L 321.33000000000004 151.52 C 317.6 150.43 315.58000000000004 147.20000000000002 315.86 144.37 C 315.89148351791385 144.05592127439243 315.94833578869867 143.74490591068727 316.03000000000003 143.44 C 316.4646135473262 141.94985290087223 317.1771348145928 140.55534699207902 318.13000000000005 139.32999999999998 C 315.64000000000004 138.6 314.02000000000004 134.85 314.28000000000003 132.64999999999998 C 314.2985204960226 132.48476535848422 314.32859411642045 132.32103120298484 314.37 132.15999999999997 C 314.76168732438265 130.5203017534933 315.6867540904553 129.05707827559894 317 128 C 314.46220268795776 126.59637698088822 313.2207514540499 123.63344670262812 314 120.84 L 314 120.73 C 314.63662188199726 118.2784448638734 316.84713914460417 116.56508854694574 319.38 116.56 C 317.7711162257925 114.80390457072097 317.2084820736534 112.32907461773064 317.9 110.05 C 317.93922572116674 109.9109045750385 317.9859609206589 109.77403720509709 318.03999999999996 109.64 C 318.89 107.41 321.54999999999995 104.64 325.35999999999996 105.7 L 319 103.79 C 315.19 102.68 312.53 105.5 311.67 107.73 C 311.62 107.88000000000001 311.57 108.01 311.54 108.14 C 310.84999336269016 110.41747623328281 311.4083061995334 112.89000451073126 313.01000000000005 114.65 C 310.47965777042816 114.65612155850141 308.27258000378305 116.36999758958338 307.64000000000004 118.82000000000001 C 307.6358713082603 118.85655044328838 307.6358713082603 118.89344955671163 307.64000000000004 118.93 C 306.8527867709065 121.71181376251418 308.06643994158037 124.67164139303512 310.58 126.1 Z" stroke-linecap="round" />
</g>
		<g transform="matrix(1 0 0 1 -47.48 -107.62)"  >
<path style="stroke: none; stroke-width: 1; stroke-dasharray: none; stroke-linecap: butt; stroke-dashoffset: 0; stroke-linejoin: miter; stroke-miterlimit: 4; fill: rgb(69,90,100); fill-rule: nonzero; opacity: 1;" vector-effect="non-scaling-stroke"  transform=" translate(-334.59, -125.25)" d="M 346.63 159.15 L 314.89 149.9 C 312.955738832389 149.35947768142356 311.28916581457617 148.12379213189143 310.21 146.43 C 309.26903608098405 144.97309414946068 308.982445778069 143.1882532756101 309.41999999999996 141.51000000000002 C 309.8375648776914 140.10380360104938 310.4901131704935 138.77842054002136 311.34999999999997 137.59000000000003 C 310.02298797608637 136.94556265263392 308.97990002826936 135.83483418942944 308.41999999999996 134.47000000000003 C 307.7309017495251 133.17061871299757 307.4984602175214 131.67735796194336 307.75999999999993 130.23000000000002 C 308.15222985653185 128.66907423612898 308.9731409027586 127.24893276375367 310.12999999999994 126.13000000000002 C 307.7195220690481 124.57047294943268 306.5984372724166 121.6281312629666 307.35999999999996 118.86000000000003 C 307.94896514941115 116.43565003668766 310.0152795975646 114.65476034693674 312.49999999999994 114.43000000000004 C 311.08509396499466 112.63330576281696 310.63706271659834 110.25874014631648 311.29999999999995 108.07000000000004 C 311.7517558701311 106.63243450816522 312.643757795827 105.37313767188857 313.84999999999997 104.47000000000004 C 315.3364659031839 103.33181508138433 317.2839858165147 102.98857402386244 319.07 103.55000000000004 L 337.94 109.06000000000004 C 338.0752605174193 103.16093900515683 340.2402435516603 97.48889536243088 344.07 93 C 346.660288405496 89.92713947590501 351.00778592650494 89.00818976293344 354.62 90.77 C 355.62 91.3 356.14 91.94 355.97 92.52 C 355.85 92.92 355.56 93.75 355.18 94.8 C 354.09000000000003 97.86999999999999 352.06 103.58 352.23 105.28999999999999 C 352.43 107.44 356.88 121.28999999999999 357.36 122.82 L 362.05 124.13999999999999 L 351.41 160.60999999999999 Z M 357 123.23 L 356.95 123.10000000000001 C 356.75 122.47000000000001 351.95 107.65 351.76 105.33000000000001 C 351.58 103.52000000000001 353.56 97.95000000000002 354.76 94.63000000000001 C 355.13 93.63000000000001 355.42 92.77000000000001 355.53999999999996 92.38000000000001 C 355.6599999999999 91.99000000000001 355.18999999999994 91.60000000000001 354.43999999999994 91.21000000000001 C 351.03912751818496 89.55772541067203 346.95076419347873 90.42233396876699 344.50999999999993 93.31 C 340.6879262677143 97.80546979881254 338.5645649570317 103.49961704695978 338.50999999999993 109.4 L 338.50999999999993 109.72 L 318.93 104 C 317.2947592672252 103.4877484503491 315.5126230641662 103.80092719733018 314.15000000000003 104.84 C 313.0285733694696 105.68082323018379 312.19956144233095 106.85263333816461 311.78000000000003 108.19 C 311.10977902841637 110.38083742107389 311.6500897537679 112.76277061875017 313.20000000000005 114.45 L 313.61000000000007 114.9 L 313.00000000000006 114.9 C 310.53478097924267 114.89739789375946 308.39455671156605 116.5979636878436 307.84000000000003 119 C 307.0988389123564 121.67560645635345 308.27390899518497 124.51226686683077 310.69000000000005 125.88 L 311.06000000000006 126.08 L 310.71000000000004 126.31 C 309.46999954657196 127.36123190536361 308.6034959763965 128.7855252231418 308.24 130.37 C 308.01613386316205 131.70066416689866 308.2375813222248 133.06801435063508 308.87 134.26 C 309.40127378869767 135.6389143880859 310.4910856119141 136.7287262113023 311.87 137.26 L 312.24 137.37 L 311.99 137.66 C 311.06658914127917 138.85597966789516 310.37163603255647 140.21198573369557 309.94 141.66 C 309.5430316221726 143.20057580920468 309.81154478332087 144.83705466971654 310.68 146.17 C 311.6874817804136 147.76434724836443 313.2524614069281 148.9264961281907 315.07 149.42999999999998 L 346.81 158.67999999999998 L 351.11 159.99999999999997 L 361.47 124.48999999999998 Z" stroke-linecap="round" />
</g>
		<g transform="matrix(-0.96 -0.28 0.28 -0.96 -22.27 -76.21)"  >
<rect style="stroke: none; stroke-width: 1; stroke-dasharray: none; stroke-linecap: butt; stroke-dashoffset: 0; stroke-linejoin: miter; stroke-miterlimit: 4; fill: rgb(0,0,0); fill-rule: nonzero; opacity: 0.2;" vector-effect="non-scaling-stroke"  x="-7.205" y="-10.875" rx="0" ry="0" width="14.41" height="21.75" />
</g>
		<g transform="matrix(1 0 0 1 -23.74 -71.17)"  >
<path style="stroke: none; stroke-width: 1; stroke-dasharray: none; stroke-linecap: butt; stroke-dashoffset: 0; stroke-linejoin: miter; stroke-miterlimit: 4; fill: rgb(240,240,240); fill-rule: nonzero; opacity: 1;" vector-effect="non-scaling-stroke"  transform=" translate(-358.33, -161.7)" d="M 360.34 162.29 C 360.5773838665626 161.478423869498 360.3023535060435 160.6037726715547 359.6432204249825 160.07410249384424 C 358.98408734392143 159.54443231613374 358.0707385003192 159.46411851183314 357.3292838185413 159.87063034508589 C 356.5878291367634 160.27714217833864 356.16437764377065 161.09037354169905 356.25648461640554 161.93092289854664 C 356.34859158904044 162.77147225539423 356.93810667977846 163.473703253758 357.75 163.70999999999998 C 358.85658903159765 164.02637928712176 360.0116574846474 163.39309851363504 360.34 162.29 Z" stroke-linecap="round" />
</g>
		<g transform="matrix(1 0 0 1 24.2 -54.77)"  >
<path style="stroke: none; stroke-width: 1; stroke-dasharray: none; stroke-linecap: butt; stroke-dashoffset: 0; stroke-linejoin: miter; stroke-miterlimit: 4; fill: rgb(255,168,167); fill-rule: nonzero; opacity: 1;" vector-effect="non-scaling-stroke"  transform=" translate(-406.27, -178.1)" d="M 365.23 163.8 C 365.23 163.8 364.53000000000003 166.08 364.45000000000005 166.47 C 363.86000000000007 170.89 367.56000000000006 172.84 370.65000000000003 176.07 C 378.33000000000004 184.07 388.20000000000005 194.35999999999999 393.17 198.53 C 402.11 206.04 403.87 207.15 414.35 199.16 C 423.54 192.16 438.08000000000004 181.01 444.62 173.57999999999998 C 451.15999999999997 166.14999999999998 447.93 155.64 440.62 151.51999999999998 C 440.62 151.51999999999998 434.62 152.88 426.62 160.60999999999999 C 419.03000000000003 167.95999999999998 402.35 183.14999999999998 402.35 183.14999999999998 C 402.35 183.14999999999998 387.66 172.09999999999997 378.54 164.32999999999998 C 374.44 160.83999999999997 374.77000000000004 153.67 374.77000000000004 153.67 Z" stroke-linecap="round" />
</g>
		<g transform="matrix(1 0 0 1 -11.18 -91.61)"  >
<path style="stroke: none; stroke-width: 1; stroke-dasharray: none; stroke-linecap: butt; stroke-dashoffset: 0; stroke-linejoin: miter; stroke-miterlimit: 4; fill: rgb(242,143,143); fill-rule: nonzero; opacity: 1;" vector-effect="non-scaling-stroke"  transform=" translate(-370.89, -141.26)" d="M 374.62 150.87 C 375.85 146.94 375.79 146.05 374.62 142.96 C 373.45 139.87 372.91 138.44 372.34000000000003 137.27 C 371.21093316167367 135.30572769537824 369.8476314195847 133.48575344855007 368.28000000000003 131.85000000000002 C 366.8 130.85000000000002 365.61 133.91000000000003 366.65000000000003 136.18000000000004 C 367.69000000000005 138.45000000000005 369.29 141.30000000000004 369.29 141.30000000000004 Z" stroke-linecap="round" />
</g>
		<g transform="matrix(1 0 0 1 -14.18 -79.18)"  >
<path style="stroke: none; stroke-width: 1; stroke-dasharray: none; stroke-linecap: butt; stroke-dashoffset: 0; stroke-linejoin: miter; stroke-miterlimit: 4; fill: rgb(255,168,167); fill-rule: nonzero; opacity: 1;" vector-effect="non-scaling-stroke"  transform=" translate(-367.89, -153.69)" d="M 369.29 168.74 C 369.04 167.65 373.1 165.5 372.96000000000004 163.54000000000002 C 372.82000000000005 161.58000000000004 372.50000000000006 161.46 373.76000000000005 159.92000000000002 C 375.02000000000004 158.38000000000002 375.14000000000004 156.92000000000002 374.61000000000007 155.92000000000002 C 374.0800000000001 154.92000000000002 376.1700000000001 154.49 375.82000000000005 152.35000000000002 C 375.0760501906136 149.7317643986781 374.0465335176078 147.20324462197982 372.75000000000006 144.81000000000003 C 371.82000000000005 143.13000000000002 367.57000000000005 140.24000000000004 365.62000000000006 139.05000000000004 C 363.6700000000001 137.86000000000004 363.02000000000004 139.54000000000005 362.9200000000001 140.87000000000003 C 362.8200000000001 142.20000000000002 364.2300000000001 144.10000000000002 364.2300000000001 144.10000000000002 C 364.2300000000001 144.10000000000002 361.9200000000001 143.01000000000002 361.38000000000005 143.73000000000002 C 360.66 144.67000000000002 360.6000000000001 146.84000000000003 362.76000000000005 148.89000000000001 C 360.91 147.74 359.89000000000004 148.39000000000001 359.93000000000006 150.00000000000003 C 359.93000000000006 151.22000000000003 360.80000000000007 152.65000000000003 362.2200000000001 154.14000000000001 C 364.00000000000006 156.03 366.2200000000001 158.14000000000001 366.2800000000001 160.27 L 365.2800000000001 163.85000000000002 Z" stroke-linecap="round" />
</g>
		<g transform="matrix(1 0 0 1 -10.55 -68.54)"  >
<path style="stroke: none; stroke-width: 1; stroke-dasharray: none; stroke-linecap: butt; stroke-dashoffset: 0; stroke-linejoin: miter; stroke-miterlimit: 4; fill: rgb(242,143,143); fill-rule: nonzero; opacity: 1;" vector-effect="non-scaling-stroke"  transform=" translate(-371.52, -164.33)" d="M 369.29 168.74 C 369.15000000000003 168.28 369.49 167.84 369.72 167.47 C 369.97917995536204 167.119718243236 370.25971225814675 166.78575121611135 370.56 166.47 C 371.1453793447702 165.87880691696444 371.6805584867401 165.23993681623787 372.16 164.56 C 372.36667505402556 164.2841656094632 372.4883187048127 163.95398998589823 372.51000000000005 163.61 L 372.51000000000005 162.32000000000002 C 372.46603119731304 161.82677855719345 372.5817176687243 161.33248181570895 372.84000000000003 160.91000000000003 C 373.10472597972415 160.5309114676244 373.4249763844991 160.19380577838766 373.79 159.91000000000003 C 373.58225992579486 160.28516428362167 373.40502215045 160.67642503296787 373.26000000000005 161.08 C 373.1548840420323 161.4527306811714 373.1548840420323 161.8472693188286 373.26000000000005 162.22 C 373.34000000000003 162.64 373.40000000000003 163.08 373.45000000000005 163.53 C 373.4541448544578 164.05453079608765 373.29705996707884 164.5676747615256 373 165 C 372.48400410667733 165.76905888893535 371.84160435709765 166.44526915165082 371.1 167 L 370.1 167.8 C 369.73 168.06 369.37 168.31 369.29 168.74 Z" stroke-linecap="round" />
</g>
		<g transform="matrix(1 0 0 1 -12.95 -83.43)"  >
<path style="stroke: none; stroke-width: 1; stroke-dasharray: none; stroke-linecap: butt; stroke-dashoffset: 0; stroke-linejoin: miter; stroke-miterlimit: 4; fill: rgb(242,143,143); fill-rule: nonzero; opacity: 1;" vector-effect="non-scaling-stroke"  transform=" translate(-369.13, -149.44)" d="M 364.23 144.05 C 365.34000000000003 144.64000000000001 366.43 145.24 367.48 145.89000000000001 C 368.577896228238 146.52783027677398 369.61550380734315 147.26419694581637 370.58000000000004 148.09 C 371.3705475308286 149.1028085910495 372.04164812701805 150.20341356880013 372.58000000000004 151.37 C 373.1298556288521 152.4930036015966 373.6107473532017 153.64847955038104 374.02000000000004 154.83 C 373.28000000000003 153.83 372.59000000000003 152.83 371.93000000000006 151.74 L 370.93000000000006 150.19 C 370.6275984689989 149.69243341444053 370.2935787956771 149.2147852815903 369.93000000000006 148.76 C 369.1000000000001 147.98999999999998 368.0300000000001 147.26999999999998 367.08000000000004 146.5 C 366.07929632541675 145.74423717012775 365.12739608561293 144.92593696398063 364.23 144.05 Z" stroke-linecap="round" />
</g>
		<g transform="matrix(1 0 0 1 -14.94 -78.74)"  >
<path style="stroke: none; stroke-width: 1; stroke-dasharray: none; stroke-linecap: butt; stroke-dashoffset: 0; stroke-linejoin: miter; stroke-miterlimit: 4; fill: rgb(242,143,143); fill-rule: nonzero; opacity: 1;" vector-effect="non-scaling-stroke"  transform=" translate(-367.13, -154.13)" d="M 371.5 159.42 C 370.88 158.42 370.39 157.32 369.88 156.32 C 369.33219575192373 155.34665316972035 368.6180621079729 154.47683162234895 367.77 153.75 C 366.09 152.16 364.33 150.61 362.77 148.84 C 364.8060491179891 150.03046209402046 366.704245884536 151.44237170305973 368.43 153.05 C 369.36343370729 153.8709346712959 370.09271892972873 154.89809695642083 370.56 156.05 C 370.93903982284576 157.15396158344842 371.2529135875589 158.27923242077105 371.5 159.41999999999996 Z" stroke-linecap="round" />
</g>
		<g transform="matrix(1 0 0 1 46.91 -60.94)"  >
<path style="stroke: none; stroke-width: 1; stroke-dasharray: none; stroke-linecap: butt; stroke-dashoffset: 0; stroke-linejoin: miter; stroke-miterlimit: 4; fill: rgb(38,50,56); fill-rule: nonzero; opacity: 1;" vector-effect="non-scaling-stroke"  transform=" translate(-428.98, -171.93)" d="M 440.41 150 C 444.3228092535365 152.23884205470563 447.1967618979894 155.92827876202205 448.41 160.27 C 449.41 164.55 448.70000000000005 171.14000000000001 441.41 178 C 432.41 186.42 423.96000000000004 193.86 423.96000000000004 193.86 C 420.36430173805724 192.64998001846624 417.10330146897167 190.61185485028776 414.44000000000005 187.91000000000003 C 409.49000000000007 183.15000000000003 409.19000000000005 176.01000000000002 409.19000000000005 176.01000000000002 C 409.19000000000005 176.01000000000002 421.4800000000001 162.83 426.74000000000007 158.27 C 432.00000000000006 153.71 436.62 150 440.41 150 Z" stroke-linecap="round" />
</g>
</g>
</g>
</svg>