<?xml version="1.0" encoding="utf-8"?>
<svg xmlns="http://www.w3.org/2000/svg" viewBox="0 0 500 500">
  <g id="freepik--speech-bubble-3--inject-37" transform="matrix(1.754028, 0, 0, 1.641629, -415.78537, -52.857929)" style="">
    <g id="freepik--speech-bubble--inject-37">
      <g id="freepik--speech-bubble--inject-37">
        <path d="M321.73,44.31v12a7.21,7.21,0,0,0,7.21,7.21h51.73c1.47,6.2,7.42,9.25,14.85,9-5.44-2.39-6.5-5.69-6.33-9H416.3a7.2,7.2,0,0,0,7.2-7.21v-12a7.2,7.2,0,0,0-7.2-7.21H328.94A7.21,7.21,0,0,0,321.73,44.31Z" style="fill:#fff"/>
        <path d="M394.63,73c-7.5,0-12.79-3.32-14.31-9H328.94a7.68,7.68,0,0,1-7.67-7.66v-12a7.67,7.67,0,0,1,7.67-7.66H416.3A7.67,7.67,0,0,1,424,44.31v12A7.67,7.67,0,0,1,416.3,64H389.63c-.05,2.61.74,5.78,6.07,8.12a.46.46,0,0,1,.27.51.46.46,0,0,1-.43.37ZM328.94,37.56a6.76,6.76,0,0,0-6.76,6.75v12a6.76,6.76,0,0,0,6.76,6.75h51.74a.46.46,0,0,1,.44.35c1.22,5.2,5.83,8.34,12.47,8.64-4.57-2.65-5-6.1-4.86-8.56a.47.47,0,0,1,.46-.43H416.3a6.76,6.76,0,0,0,6.75-6.75v-12a6.76,6.76,0,0,0-6.75-6.75Z" style="fill:#455a64"/>
      </g>
      <g id="freepik--Stars--inject-37">
        <path d="M409,44.23l-1.71,3.45-3.8.56a.74.74,0,0,0-.41,1.26l2.75,2.69L405.22,56a.74.74,0,0,0,1.08.78L409.7,55l3.41,1.79a.74.74,0,0,0,1.07-.78l-.65-3.79,2.76-2.69a.74.74,0,0,0-.41-1.26l-3.81-.56-1.7-3.45A.74.74,0,0,0,409,44.23Z" style="fill:#0020F1"/>
        <path d="M390.5,44.23l-1.71,3.45-3.8.56a.74.74,0,0,0-.42,1.26l2.76,2.69L386.68,56a.74.74,0,0,0,1.07.78L391.16,55l3.4,1.79a.74.74,0,0,0,1.08-.78L395,52.19l2.75-2.69a.74.74,0,0,0-.41-1.26l-3.8-.56-1.71-3.45A.73.73,0,0,0,390.5,44.23Z" style="fill:#0020F1"/>
        <path d="M372,44.23l-1.7,3.45-3.81.56A.74.74,0,0,0,366,49.5l2.76,2.69L368.14,56a.74.74,0,0,0,1.07.78L372.62,55l3.4,1.79A.74.74,0,0,0,377.1,56l-.65-3.79,2.75-2.69a.74.74,0,0,0-.41-1.26L375,47.68l-1.7-3.45A.74.74,0,0,0,372,44.23Z" style="fill:#0020F1"/>
        <path d="M353.41,44.23l-1.7,3.45-3.81.56a.74.74,0,0,0-.41,1.26l2.76,2.69L349.59,56a.75.75,0,0,0,1.08.78L354.08,55l3.4,1.79a.75.75,0,0,0,1.08-.78l-.66-3.79,2.76-2.69a.74.74,0,0,0-.41-1.26l-3.81-.56-1.7-3.45A.74.74,0,0,0,353.41,44.23Z" style="fill:#0020F1"/>
        <path d="M334.87,44.23l-1.7,3.45-3.81.56A.74.74,0,0,0,329,49.5l2.75,2.69L331.05,56a.74.74,0,0,0,1.08.78l3.4-1.79,3.41,1.79A.74.74,0,0,0,340,56l-.65-3.79,2.76-2.69a.74.74,0,0,0-.41-1.26l-3.81-.56-1.7-3.45A.74.74,0,0,0,334.87,44.23Z" style="fill:#0020F1"/>
      </g>
    </g>
  </g>
  <g id="freepik--character-3--inject-37" transform="matrix(1.242859, 0, 0, 1.23196, -184.432831, -36.25201)" style="">
    <g id="freepik--Character--inject-37">
      <g id="freepik--Bottom--inject-37">
        <path d="M395.08,352.78l-19.86-1.5c.13,9.06,0,17.39-.09,18.89-.22,5.13-2,8.9-3.94,11.09-4.12,4.58-7.11,6.46-12.31,10.49.8,2,11.84,1.73,14.95.14a114.89,114.89,0,0,0,13.05-8c4.27-3.28,5.25-5.23,5.24-10.11a15,15,0,0,0-.07-1.59C392.06,371,393.41,362.7,395.08,352.78Z" style="fill:#ffa8a7"/>
        <path d="M449.47,363.06l-19.61-.64c1.74,8.08,2.32,11.3,3.93,20.46,1.09,6.24,3.53,27.18,4.86,31.52,4.27,14,15.51,7.59,16.44,0,.63-5.07-5.1-31-5.16-33.43C449.74,374.33,449.6,369.76,449.47,363.06Z" style="fill:#ffa8a7"/>
        <path d="M346.19,398.27c-.3,0-.72,3.24.88,4.6,1.85,1.57,7.25,4.13,14.37,3.16s10.95-3.19,13.78-5.6,6.81-5.79,10-6.52c3-.68,7.84-2.4,8.8-3.33s.79-5,.79-5Z" style="fill:#263238"/>
        <path d="M392.05,371.14a2.18,2.18,0,0,1,1.16,1.4,44.31,44.31,0,0,0,.73,4.43,33.22,33.22,0,0,1,.76,10c-.38,2.1-6.86,3.94-10,5.15a39.72,39.72,0,0,0-10.05,6.44c-3.33,2.78-10.35,5.6-15,5.7-7.08.15-11.68-1.74-13.11-4.28-1.78-3.14-.93-6.41,7.19-10.24,1.53-.72,6.93-4,8.76-5.13a42.1,42.1,0,0,0,5.51-4.16,30.42,30.42,0,0,0,2.47-2.48,11.09,11.09,0,0,0,2.05-2.64c.09-.22.15-.47.23-.69a12.66,12.66,0,0,0,.52-1.92c.12-.67.2-1.66.84-2.07s10.77,1.51,11.48,2.63a5.89,5.89,0,0,1,.69,3c0,.47,0,.95,0,1.43,0,.2-.08.57.2.48s.57-.79.67-1c.22-.53.36-1.1.61-1.63a4.88,4.88,0,0,1,1-1.73c1.35-1.14,2.66-.93,3.05-1.32C391.88,372.41,392,371.55,392.05,371.14Z" style="fill:#37474f"/>
        <path d="M353.32,390c10.26.64,13.18,8.8,13.64,12.72a24.24,24.24,0,0,1-7.27,1.58c-7.08.15-12-1.74-13.4-4.28C344.61,397,346.07,392.75,353.32,390Z" style="fill:#fafafa"/>
        <path d="M368.35,391.8a.45.45,0,0,0,.31-.11.52.52,0,0,0,.07-.71c-1.44-1.73-6.09-5.46-9.81-5a.5.5,0,0,0,.11,1c3.48-.4,7.78,3.29,8.93,4.67A.47.47,0,0,0,368.35,391.8Z" style="fill:#f0f0f0"/>
        <path d="M372.74,389.2a.5.5,0,0,0,.39-.82c-1.44-1.74-6.09-5.47-9.81-5a.5.5,0,0,0-.44.55.48.48,0,0,0,.55.44c3.48-.39,7.78,3.3,8.93,4.68A.48.48,0,0,0,372.74,389.2Z" style="fill:#f0f0f0"/>
        <path d="M376.82,386.24a.52.52,0,0,0,.31-.12.51.51,0,0,0,.07-.71c-1.44-1.73-6.1-5.46-9.81-5a.51.51,0,0,0-.44.56.5.5,0,0,0,.55.44c3.48-.4,7.79,3.3,8.93,4.67A.51.51,0,0,0,376.82,386.24Z" style="fill:#f0f0f0"/>
        <path d="M380.81,383.27a.51.51,0,0,0,.31-.11.49.49,0,0,0,.07-.7c-2-2.47-6.94-5.51-10.66-5.08a.5.5,0,0,0-.44.55.49.49,0,0,0,.55.44c3.35-.38,8,2.53,9.77,4.71A.5.5,0,0,0,380.81,383.27Z" style="fill:#f0f0f0"/>
        <path d="M437.08,415.92c.6,4.69,1.55,7.76,3.41,10.41s5.08,3.29,8.21,2.26,7.08-3.48,7.71-7.6,1-6.95-.06-11.27Z" style="fill:#263238"/>
        <path d="M449.93,381c1.32,0,1.4,6.28,2.6,12.55,1.29,6.73,2.45,9.36,3.57,14.87,1.27,6.3.41,9.21-1.55,13.21s-9.58,8.32-13.85,3.09c-3.48-4.27-4-9.24-4.11-15.61a92.23,92.23,0,0,0-2-15.86c-.91-5.1-1.93-9.72-.82-10.33a46.78,46.78,0,0,0,1.13,5.08c.16.34.73,1.19.84-.15,0-.4-.15-1.3-.14-1.69a1.69,1.69,0,0,1,1.09-1.61,12.83,12.83,0,0,1,5.52-1.62c2.57-.19,4.78-.43,6.27.21.89.38.92,1.2,1.07,2s.24,1.54.46,1.33C450.47,386,449.84,381.65,449.93,381Z" style="fill:#37474f"/>
        <path d="M456.72,412a15.93,15.93,0,0,1-1.79,9.83c-2,4-10.22,8.38-14.49,3.14-2.12-2.6-2.86-5.81-3.36-9.09C439.11,411.51,452.79,408.68,456.72,412Z" style="fill:#fafafa"/>
        <path d="M439.47,408.81a.52.52,0,0,0,.16-.06c.05,0,6-3,12-2a.49.49,0,0,0,.56-.41.5.5,0,0,0-.41-.56c-6.36-1-12.39,2-12.62,2.13a.49.49,0,0,0,.33.91Z" style="fill:#f0f0f0"/>
        <path d="M451,402a.48.48,0,0,0,.39-.35.5.5,0,0,0-.35-.6c-6-1.59-12.37,1.86-12.61,2a.49.49,0,0,0,.51.83c.05,0,6.23-3.38,11.85-1.9A.5.5,0,0,0,451,402Z" style="fill:#f0f0f0"/>
        <path d="M450.47,397.57a.5.5,0,0,0,.39-.35.49.49,0,0,0-.34-.6c-6.65-1.88-12.63,1.83-12.86,2a.48.48,0,0,0-.11.68.49.49,0,0,0,.68.12s5.83-3.59,12-1.85A.55.55,0,0,0,450.47,397.57Z" style="fill:#f0f0f0"/>
        <path d="M449.84,393.19a.49.49,0,0,0,.06-.95c-6.24-1.85-12.69,2-12.93,2.14a.49.49,0,0,0-.14.68.49.49,0,0,0,.68.13c.06,0,6.32-3.73,12.11-2A.41.41,0,0,0,449.84,393.19Z" style="fill:#ebebeb"/>
        <path d="M444.47,209.76c.41,14.5.53,18,1.33,49.08.79,30.15.83,34.26,1,37.9.34,8.33,2.72,11,3,30.67.25,18-.07,40.19-.07,40.19s-2.56,3.22-9.42,3.55c-6.34.31-9.4-2.19-9.4-2.19s-10.05-40.4-12.82-53c-3.22-14.64-9-39.87-9-39.87l-5.31,28.58a116.06,116.06,0,0,1-2.44,26.72c-3.41,16.11-6.78,28.29-6.78,28.29a26.08,26.08,0,0,1-10.36.85c-7.36-1.05-9.4-2.86-9.4-2.86s-.92-43.78-.19-61.57,2.74-61.32,4.91-89Z" style="fill:#455a64"/>
        <path d="M409,276.06l-3.85-31.33s-10.19-3.14-16.52-10.32c.28,5.17,9.17,12.16,13.42,13.36l4.59,27.81-3,29.06Z" style="fill:#37474f"/>
        <path d="M423.55,213.75a42.61,42.61,0,0,1,3.53,8.32,83.21,83.21,0,0,1,2.22,8.76c.55,3,1,5.94,1.26,8.94a59,59,0,0,1,.23,9c-.6-3-1.15-5.89-1.7-8.82s-1.07-5.86-1.66-8.78-1.15-5.83-1.78-8.73S424.33,216.66,423.55,213.75Z" style="fill:#37474f"/>
        <path d="M427.44,215a31.91,31.91,0,0,1,3.88,4.73,44.1,44.1,0,0,1,3.1,5.27,40,40,0,0,1,2.28,5.69,24.32,24.32,0,0,1,1.13,6l-2.51-5.5c-.86-1.8-1.71-3.6-2.6-5.38s-1.79-3.56-2.67-5.36S428.25,216.88,427.44,215Z" style="fill:#37474f"/>
        <path d="M419.43,250.72c.91,9.38,1.69,18.77,2.49,28.14s2.64,19.76,4,29.05,10.74,45.82,11.79,55.18c-1.78-9.25-12.24-45.57-13.67-54.92s-3-19.79-3.58-29.2S419.61,260.14,419.43,250.72Z" style="fill:#37474f"/>
        <path d="M385.93,249.35l-2.54,24.47c-.39,4.08-.82,8.15-1.17,12.23s-.77,8.16-.87,12.2-1.43,43.25-2.32,51.42c-.59-9.17.37-43.2.43-51.47.36-8.29,1.4-16.4,2.47-24.55S384.34,257.4,385.93,249.35Z" style="fill:#37474f"/>
        <path d="M395.34,355.82l-1.49,7.92s-3.76,2.37-10.9,1.34-8.32-3.19-8.32-3.19l-.15-8s1.65,1.74,8.17,2.75A33.12,33.12,0,0,0,395.34,355.82Z" style="fill:#37474f"/>
        <path d="M449.79,361.65l.29,8.64s-2.94,2.8-10.12,3.46-8.64-1.42-8.64-1.42l-1.88-8.08s2.33,1.51,8.91,1A28.2,28.2,0,0,0,449.79,361.65Z" style="fill:#37474f"/>
      </g>
      <g id="freepik--Top--inject-37">
        <path d="M308.61,143.39c-.05-.15-.09-.3-.14-.45a13.11,13.11,0,0,1-.52-2.71,16.75,16.75,0,0,1,.11-2.83c.14-1.42.29-2.84.46-4.26.11-.85,0-3,.88-3.42.44-.22,1,.08,1.44.17a.3.3,0,0,0,.25,0,.35.35,0,0,0,.09-.17c.25-.86.19-1.75.45-2.6a2.89,2.89,0,0,1,1.29-1.8,3.62,3.62,0,0,1,1.67-.29,12.83,12.83,0,0,1,.22-2.13,1.54,1.54,0,0,1,.39-.87,1.2,1.2,0,0,1,.8-.24,2.54,2.54,0,0,1,1.71.83,3.51,3.51,0,0,1,1.07,2.24,2.15,2.15,0,0,1,2.79.55,3.64,3.64,0,0,1,.55,1.69,22.24,22.24,0,0,1,.23,3.26,37.89,37.89,0,0,0,.3,5.93,12.44,12.44,0,0,0,1.75,4.83c.14.22.33.48.6.46s.42-.36.49-.64c.6-2.65-.51-5.59.63-8a7.94,7.94,0,0,1,1.71-2.24,1.36,1.36,0,0,1,.49-.34.94.94,0,0,1,1.06.66,11.87,11.87,0,0,1,.21,2.48,36.3,36.3,0,0,0,1.21,6.11,24.47,24.47,0,0,1,.94,5.37c.1,1.5-.44,3.51,0,4.93a3.22,3.22,0,0,0,.54.91c1.87,2.46,12.15,12.71,15.28,15.52q3.38,3,6.8,6s9.48-11.29,14.4-17.19c9.83-11.77,13-12.85,22.38-15l-8.79,34.72s-10,9.63-20.33,18.82c-4.19,3.73-9.16,6.08-17.27-3-4.92-5.53-16.91-22.26-19.17-25.16a34.38,34.38,0,0,0-6.06-5.81,32,32,0,0,1-3.95-3.11c-2.52-2.36-4-5.6-5.35-8.78A43.74,43.74,0,0,1,308.61,143.39Z" style="fill:#ffa8a7"/>
        <path d="M391.47,139.55c-6.05.87-10.62,2.1-15.61,7s-16.7,19.24-16.7,19.24a21,21,0,0,0,4.56,9.62,50.21,50.21,0,0,0,9.4,8.6l11.5-10.7Z" style="fill:#263238"/>
        <g id="freepik--Chest--inject-37">
          <g id="freepik--chest--inject-37">
            <path d="M440.41,150s6.25,11.07,4.66,27.63c-.85,9,.25,9-.38,23-.45,10.05.36,30.57.36,30.57-10.32,8.77-57.51,9.28-68.08-3.9,0,0,.58-21.62.58-38.68,0-12.73.35-22.66,1.79-28.68,3.27-13.58,9.38-18.4,12.13-20.46,10.58-1.33,17.13-3.45,23.18-1.23C431.84,144.64,440.41,150,440.41,150Z" style="fill:#37474f"/>
          </g>
          <g id="freepik--Head--inject-37">
            <path d="M422.57,131.54c3.83-6.59,7.46-10.83,10.09-18.07,1.06-2.93,2.64-9.66,1-13.54-1.1-2.71-2.78-4.84-5.7-4.89.75-3.79-1-6.06-2.59-7.68a6,6,0,0,0-6.23-1.42,5.16,5.16,0,0,0-8.8-3A5.44,5.44,0,0,0,405,80a6,6,0,0,0-5.13,3.9c-4.32-3.3-10.89-.41-10.54,6.67a3.23,3.23,0,0,0-3.47-.22,3.2,3.2,0,0,0-1.52,3.12,9.4,9.4,0,0,1,.43,2.37,1.9,1.9,0,0,1-1.3,1.52,1.88,1.88,0,0,1-1.92-.57,3.88,3.88,0,0,0,4.48,4.76,3,3,0,0,0,1.12,3,3.51,3.51,0,0,0,2.49.49Z" style="fill:#263238"/>
            <path d="M390,124.33c.74,5.35,3,8.1,6.55,9.42a17.56,17.56,0,0,0,5.93.71l-.36,5.18c-10.69,12.33,15,12.68,20.08,1.84l.6-17.47s2.2,2.7,6.1.38a8.28,8.28,0,0,0,3-10c-1.72-4-5.46-4-7.36-2.2-2.11,2-2,3.93-3,3.82a2.73,2.73,0,0,1-2.56-2c-.61-1.73-.68-3.49-.6-7.29a9.8,9.8,0,0,1-3.62-3.37c-1.48-3-.5-6,.44-7.92-4.23-1.7-8.78,2.67-13.35,3.14-5.22.53-5.59-3.87-8.44-3.59-2.34,2-3.52,6.76-3.48,9.86C390,110.89,388.65,114.32,390,124.33Z" style="fill:#ffa8a7"/>
            <path d="M402.51,134.46c4.17-.07,12.62-1.67,14.94-3.91s3.47-6.94,3.47-6.94-.58,6-2.41,8.57-6.23,3.55-8.9,4.1a65.79,65.79,0,0,1-7.29.81Z" style="fill:#f28f8f"/>
            <path d="M406.67,121.73l-6.17,1.4a3.11,3.11,0,0,0,3.72,2.5A3.31,3.31,0,0,0,406.67,121.73Z" style="fill:#b16668"/>
            <path d="M402.8,125.6a3.09,3.09,0,0,0,1.42,0,3.32,3.32,0,0,0,2.52-3.2A3.85,3.85,0,0,0,402.8,125.6Z" style="fill:#f28f8f"/>
            <path d="M392.48,106.46l4.1-1.67a2.13,2.13,0,0,0-2.82-1.26A2.32,2.32,0,0,0,392.48,106.46Z" style="fill:#263238"/>
            <path d="M412,107.39l-3.75-2.46a2.15,2.15,0,0,1,3-.71A2.37,2.37,0,0,1,412,107.39Z" style="fill:#263238"/>
            <path d="M396.61,110.11a1.9,1.9,0,0,1-1.86,1.86,1.77,1.77,0,0,1-1.83-1.79,1.9,1.9,0,0,1,1.86-1.86A1.77,1.77,0,0,1,396.61,110.11Z" style="fill:#263238"/>
            <path d="M410.5,110.67a1.9,1.9,0,0,1-1.86,1.86,1.77,1.77,0,0,1-1.83-1.79,1.89,1.89,0,0,1,1.86-1.86A1.78,1.78,0,0,1,410.5,110.67Z" style="fill:#263238"/>
            <path d="M395.57,117.6l6.05,2.1L403,108C400.82,107.62,397.56,113.5,395.57,117.6Z" style="fill:#f28f8f"/>
          </g>
        </g>
        <g id="freepik--like--inject-37">
          <path d="M308,130.3c-.6,2.07,1.06,6.38,3.76,7.17a12.44,12.44,0,0,0-2.1,4.11c-.88,3,1.15,6.87,5.3,8.08l31.74,9.25,4.54,1.39,10.5-36L357.16,123s-5-15.4-5.18-17.72,3.26-11.2,3.75-12.86-7.22-4.58-11.46.71a25.35,25.35,0,0,0-6.09,16.23L319,103.79c-4.05-1.18-6.8,2.07-7.46,4.35a6.76,6.76,0,0,0,1.47,6.51,5.58,5.58,0,0,0-5.41,4.28,6.28,6.28,0,0,0,3,7.17A7.6,7.6,0,0,0,308,130.3Z" style="fill:#fafafa"/>
          <path d="M355.73,92.45c.48-1.66-7.22-4.58-11.46.71a25.35,25.35,0,0,0-6.09,16.23l.24.33,3.42,1C344.68,92.11,352.07,91.48,355.73,92.45Z" style="fill:#e0e0e0"/>
          <rect x="355.65" y="124.47" width="14.41" height="43.5" transform="translate(670.26 388.18) rotate(-163.74)" style="fill:#0020F1"/>
          <rect x="355.65" y="124.47" width="14.41" height="43.5" transform="translate(670.26 388.18) rotate(-163.74)" style="opacity:0.2"/>
          <path d="M310.58,126.1a7.6,7.6,0,0,0-2.58,4.2,3.44,3.44,0,0,0-.09.5c-.26,2.19,1.35,5.94,3.85,6.67a12.44,12.44,0,0,0-2.1,4.11,4.23,4.23,0,0,0-.17.93c-.28,2.83,1.74,6.06,5.47,7.15l6.37,1.86c-3.73-1.09-5.75-4.32-5.47-7.15a5.85,5.85,0,0,1,.17-.93,12.31,12.31,0,0,1,2.1-4.11c-2.49-.73-4.11-4.48-3.85-6.68a3.56,3.56,0,0,1,.09-.49A7.61,7.61,0,0,1,317,128a6.26,6.26,0,0,1-3-7.16l0-.11a5.57,5.57,0,0,1,5.38-4.17,6.74,6.74,0,0,1-1.48-6.51,4,4,0,0,1,.14-.41c.85-2.23,3.51-5,7.32-3.94L319,103.79c-3.81-1.11-6.47,1.71-7.33,3.94-.05.15-.1.28-.13.41a6.76,6.76,0,0,0,1.47,6.51,5.56,5.56,0,0,0-5.37,4.17.49.49,0,0,0,0,.11A6.28,6.28,0,0,0,310.58,126.1Z" style="fill:#e0e0e0"/>
          <path d="M346.63,159.15l-31.74-9.25a8.15,8.15,0,0,1-4.68-3.47,6.19,6.19,0,0,1-.79-4.92,13,13,0,0,1,1.93-3.92,6,6,0,0,1-2.93-3.12,6.56,6.56,0,0,1-.66-4.24,8.63,8.63,0,0,1,2.37-4.1,6.58,6.58,0,0,1-2.77-7.27,5.83,5.83,0,0,1,5.14-4.43,7,7,0,0,1-1.2-6.36,7.19,7.19,0,0,1,2.55-3.6,5.75,5.75,0,0,1,5.22-.92l18.87,5.51A25.65,25.65,0,0,1,344.07,93a8.77,8.77,0,0,1,10.55-2.23c1,.53,1.52,1.17,1.35,1.75-.12.4-.41,1.23-.79,2.28-1.09,3.07-3.12,8.78-2.95,10.49.2,2.15,4.65,16,5.13,17.53l4.69,1.32-10.64,36.47ZM357,123.23l-.05-.13c-.2-.63-5-15.45-5.19-17.77-.18-1.81,1.8-7.38,3-10.7.37-1,.66-1.86.78-2.25s-.35-.78-1.1-1.17a8.27,8.27,0,0,0-9.93,2.1,25.2,25.2,0,0,0-6,16.09v.32L318.93,104a5.28,5.28,0,0,0-4.78.84,6.69,6.69,0,0,0-2.37,3.35,6.46,6.46,0,0,0,1.42,6.26l.41.45-.61,0a5.29,5.29,0,0,0-5.16,4.1,6.05,6.05,0,0,0,2.85,6.88l.37.2-.35.23a7.53,7.53,0,0,0-2.47,4.06,6.13,6.13,0,0,0,.63,3.89,5.23,5.23,0,0,0,3,3l.37.11-.25.29a12.29,12.29,0,0,0-2.05,4,5.67,5.67,0,0,0,.74,4.51,7.59,7.59,0,0,0,4.39,3.26l31.74,9.25,4.3,1.32,10.36-35.51Z" style="fill:#455a64"/>
          <rect x="352.61" y="145.78" width="14.41" height="21.75" transform="translate(661.36 407.79) rotate(-163.74)" style="opacity:0.2"/>
          <path d="M360.34,162.29a2.09,2.09,0,1,0-2.59,1.42A2.1,2.1,0,0,0,360.34,162.29Z" style="fill:#f0f0f0"/>
        </g>
        <path d="M365.23,163.8s-.7,2.28-.78,2.67c-.59,4.42,3.11,6.37,6.2,9.6,7.68,8,17.55,18.29,22.52,22.46,8.94,7.51,10.7,8.62,21.18.63,9.19-7,23.73-18.15,30.27-25.58s3.31-17.94-4-22.06c0,0-6,1.36-14,9.09-7.59,7.35-24.27,22.54-24.27,22.54s-14.69-11.05-23.81-18.82c-4.1-3.49-3.77-10.66-3.77-10.66Z" style="fill:#ffa8a7"/>
        <path d="M374.62,150.87c1.23-3.93,1.17-4.82,0-7.91s-1.71-4.52-2.28-5.69a28,28,0,0,0-4.06-5.42c-1.48-1-2.67,2.06-1.63,4.33s2.64,5.12,2.64,5.12Z" style="fill:#f28f8f"/>
        <path d="M369.29,168.74c-.25-1.09,3.81-3.24,3.67-5.2s-.46-2.08.8-3.62,1.38-3,.85-4,1.56-1.43,1.21-3.57a37.14,37.14,0,0,0-3.07-7.54c-.93-1.68-5.18-4.57-7.13-5.76s-2.6.49-2.7,1.82,1.31,3.23,1.31,3.23-2.31-1.09-2.85-.37c-.72.94-.78,3.11,1.38,5.16-1.85-1.15-2.87-.5-2.83,1.11,0,1.22.87,2.65,2.29,4.14,1.78,1.89,4,4,4.06,6.13l-1,3.58Z" style="fill:#ffa8a7"/>
        <path d="M369.29,168.74c-.14-.46.2-.9.43-1.27a10.6,10.6,0,0,1,.84-1,15,15,0,0,0,1.6-1.91,1.77,1.77,0,0,0,.35-.95l0-1.29a2.31,2.31,0,0,1,.33-1.41,4.61,4.61,0,0,1,.95-1,8,8,0,0,0-.53,1.17,2.1,2.1,0,0,0,0,1.14c.08.42.14.86.19,1.31A2.56,2.56,0,0,1,373,165a8.21,8.21,0,0,1-1.9,2l-1,.8C369.73,168.06,369.37,168.31,369.29,168.74Z" style="fill:#f28f8f"/>
        <path d="M364.23,144.05c1.11.59,2.2,1.19,3.25,1.84a20.94,20.94,0,0,1,3.1,2.2,16.71,16.71,0,0,1,2,3.28,30.77,30.77,0,0,1,1.44,3.46c-.74-1-1.43-2-2.09-3.09l-1-1.55a13.61,13.61,0,0,0-1-1.43c-.83-.77-1.9-1.49-2.85-2.26A29.74,29.74,0,0,1,364.23,144.05Z" style="fill:#f28f8f"/>
        <path d="M371.5,159.42c-.62-1-1.11-2.1-1.62-3.1a9.56,9.56,0,0,0-2.11-2.57c-1.68-1.59-3.44-3.14-5-4.91a32,32,0,0,1,5.66,4.21,8,8,0,0,1,2.13,3A29.81,29.81,0,0,1,371.5,159.42Z" style="fill:#f28f8f"/>
        <path d="M440.41,150a17.15,17.15,0,0,1,8,10.27c1,4.28.29,10.87-7,17.73-9,8.42-17.45,15.86-17.45,15.86a24.21,24.21,0,0,1-9.52-5.95c-4.95-4.76-5.25-11.9-5.25-11.9s12.29-13.18,17.55-17.74S436.62,150,440.41,150Z" style="fill:#263238"/>
      </g>
    </g>
  </g>
</svg>